<svg width="90" height="88" viewBox="0 0 90 88" fill="none" xmlns="http://www.w3.org/2000/svg" xmlns:xlink="http://www.w3.org/1999/xlink">
<path d="M90,44C90,68.301 69.771,88 44.818,88C19.865,88 -0.364,68.301 -0.364,44C-0.364,19.699 19.865,0 44.818,0C69.771,0 90,19.699 90,44Z" fill="#10160A"/>
<path d="M31.085,45.831L29.595,45.657L29.595,45.657L31.085,45.831ZM32.003,37.95L33.493,38.124L32.003,37.95ZM29.307,49.744L28.178,48.757L28.178,48.757L29.307,49.744ZM60.04,45.657C59.944,44.834 59.199,44.245 58.377,44.341C57.554,44.437 56.964,45.181 57.06,46.004L60.04,45.657ZM60.328,49.744L59.198,50.731L59.198,50.731L60.328,49.744ZM40.156,28.747L40.63,30.17C41.243,29.966 41.656,29.393 41.656,28.747L40.156,28.747ZM47.231,26.576C47.779,27.197 48.727,27.257 49.348,26.709C49.969,26.161 50.029,25.213 49.481,24.592L47.231,26.576ZM52.379,60.539C52.676,59.766 52.291,58.898 51.517,58.6C50.744,58.303 49.876,58.688 49.579,59.461L52.379,60.539ZM40.056,59.461C39.759,58.688 38.891,58.303 38.118,58.6C37.344,58.898 36.959,59.766 37.256,60.539L40.056,59.461ZM56.682,54.5L32.953,54.5L32.953,57.5L56.682,57.5L56.682,54.5ZM32.575,46.004L33.493,38.124L30.513,37.777L29.595,45.657L32.575,46.004ZM30.437,50.731C31.621,49.377 32.372,47.744 32.575,46.004L29.595,45.657C29.467,46.756 28.988,47.83 28.178,48.757L30.437,50.731ZM57.06,46.004C57.263,47.744 58.014,49.377 59.198,50.731L61.457,48.757C60.647,47.83 60.168,46.756 60.04,45.657L57.06,46.004ZM32.953,54.5C31.574,54.5 30.611,53.835 30.173,53.083C29.755,52.367 29.757,51.508 30.437,50.731L28.178,48.757C26.604,50.558 26.552,52.827 27.581,54.594C28.59,56.326 30.576,57.5 32.953,57.5L32.953,54.5ZM56.682,57.5C59.059,57.5 61.045,56.326 62.054,54.594C63.083,52.827 63.031,50.558 61.457,48.757L59.198,50.731C59.878,51.508 59.88,52.367 59.462,53.083C59.024,53.835 58.061,54.5 56.682,54.5L56.682,57.5ZM41.656,28.747L41.656,28.54L38.656,28.54L38.656,28.747L41.656,28.747ZM33.493,38.124C33.908,34.566 36.666,31.492 40.63,30.17L39.681,27.324C34.845,28.937 31.089,32.837 30.513,37.777L33.493,38.124ZM44.818,22.5C41.452,22.5 38.656,25.167 38.656,28.54L41.656,28.54C41.656,26.898 43.034,25.5 44.818,25.5L44.818,22.5ZM44.818,25.5C45.792,25.5 46.654,25.921 47.231,26.576L49.481,24.592C48.349,23.307 46.674,22.5 44.818,22.5L44.818,25.5ZM49.579,59.461C48.92,61.173 47.085,62.5 44.818,62.5L44.818,65.5C48.239,65.5 51.243,63.488 52.379,60.539L49.579,59.461ZM44.818,62.5C42.55,62.5 40.715,61.173 40.056,59.461L37.256,60.539C38.391,63.488 41.396,65.5 44.818,65.5L44.818,62.5Z" fill="#DADADA"/>
</svg>
