<svg width="48" height="50" viewBox="0 0 48 50" fill="none" xmlns="http://www.w3.org/2000/svg" xmlns:xlink="http://www.w3.org/1999/xlink">
<path d="M21.2,7.56C13.192,7.56 6.7,14.051 6.7,22.06C6.7,25.586 7.957,28.815 10.049,31.329C10.376,31.722 10.481,32.254 10.326,32.741L8.849,37.401L14.856,35.509C15.185,35.405 15.539,35.418 15.86,35.545C17.51,36.199 19.311,36.56 21.2,36.56L25.2,36.56C33.208,36.56 39.7,30.068 39.7,22.06C39.7,14.051 33.208,7.56 25.2,7.56L21.2,7.56ZM3.7,22.06C3.7,12.395 11.535,4.56 21.2,4.56L25.2,4.56C34.865,4.56 42.7,12.395 42.7,22.06C42.7,31.725 34.865,39.56 25.2,39.56L21.2,39.56C19.118,39.56 17.118,39.195 15.262,38.526L8.833,40.551C6.902,41.16 5.087,39.341 5.699,37.412L6.676,37.722L5.699,37.412L7.225,32.595C5.013,29.664 3.7,26.014 3.7,22.06Z" clip-rule="evenodd" fill-rule="evenodd" fill="#7D848D"/>
<path d="M16.2,24.06C17.305,24.06 18.2,23.164 18.2,22.06C18.2,20.955 17.305,20.06 16.2,20.06C15.096,20.06 14.2,20.955 14.2,22.06C14.2,23.164 15.096,24.06 16.2,24.06Z" fill="#7D848D"/>
<path d="M23.2,24.06C24.305,24.06 25.2,23.164 25.2,22.06C25.2,20.955 24.305,20.06 23.2,20.06C22.096,20.06 21.2,20.955 21.2,22.06C21.2,23.164 22.096,24.06 23.2,24.06Z" fill="#7D848D"/>
<path d="M30.2,24.06C31.305,24.06 32.2,23.164 32.2,22.06C32.2,20.955 31.305,20.06 30.2,20.06C29.096,20.06 28.2,20.955 28.2,22.06C28.2,23.164 29.096,24.06 30.2,24.06Z" fill="#7D848D"/>
</svg>
