<svg width="48" height="48" viewBox="0 0 48 48" fill="none" xmlns="http://www.w3.org/2000/svg" xmlns:xlink="http://www.w3.org/1999/xlink">
<path d="M21.2,7.5C13.192,7.5 6.7,13.992 6.7,22C6.7,25.526 7.957,28.755 10.049,31.269C10.376,31.662 10.481,32.194 10.326,32.682L8.849,37.341L14.856,35.449C15.185,35.345 15.539,35.358 15.86,35.485C17.51,36.14 19.311,36.5 21.2,36.5L25.2,36.5C33.208,36.5 39.7,30.008 39.7,22C39.7,13.992 33.208,7.5 25.2,7.5L21.2,7.5ZM3.7,22C3.7,12.335 11.535,4.5 21.2,4.5L25.2,4.5C34.865,4.5 42.7,12.335 42.7,22C42.7,31.665 34.865,39.5 25.2,39.5L21.2,39.5C19.118,39.5 17.118,39.136 15.262,38.466L8.833,40.492C6.902,41.1 5.087,39.282 5.699,37.352L6.676,37.662L5.699,37.352L7.225,32.535C5.013,29.605 3.7,25.954 3.7,22Z" clip-rule="evenodd" fill-rule="evenodd" fill="#7D848D"/>
<path d="M16.2,24C17.305,24 18.2,23.105 18.2,22C18.2,20.895 17.305,20 16.2,20C15.096,20 14.2,20.895 14.2,22C14.2,23.105 15.096,24 16.2,24Z" fill="#7D848D"/>
<path d="M23.2,24C24.305,24 25.2,23.105 25.2,22C25.2,20.895 24.305,20 23.2,20C22.096,20 21.2,20.895 21.2,22C21.2,23.105 22.096,24 23.2,24Z" fill="#7D848D"/>
<path d="M30.2,24C31.305,24 32.2,23.105 32.2,22C32.2,20.895 31.305,20 30.2,20C29.096,20 28.2,20.895 28.2,22C28.2,23.105 29.096,24 30.2,24Z" fill="#7D848D"/>
</svg>
