<svg width="42" height="38" viewBox="0 0 42 38" fill="none" xmlns="http://www.w3.org/2000/svg" xmlns:xlink="http://www.w3.org/1999/xlink">
<path d="M10.072,8.16L31.279,8.16L31.279,5.96L10.072,5.96L10.072,8.16ZM31.279,8.16C33.947,8.16 35.922,10.099 35.922,12.27L38.122,12.27C38.122,8.687 34.955,5.96 31.279,5.96L31.279,8.16ZM35.922,12.27L35.922,28.298L38.122,28.298L38.122,12.27L35.922,12.27ZM35.922,28.298C35.922,30.469 33.947,32.407 31.279,32.407L31.279,34.607C34.955,34.607 38.122,31.881 38.122,28.298L35.922,28.298ZM31.279,32.407L10.072,32.407L10.072,34.607L31.279,34.607L31.279,32.407ZM10.072,32.407C7.404,32.407 5.429,30.469 5.429,28.298L3.229,28.298C3.229,31.881 6.396,34.607 10.072,34.607L10.072,32.407ZM5.429,28.298L5.429,12.27L3.229,12.27L3.229,28.298L5.429,28.298ZM5.429,12.27C5.429,10.099 7.404,8.16 10.072,8.16L10.072,5.96C6.396,5.96 3.229,8.687 3.229,12.27L5.429,12.27Z" fill="#FFFFFF"/>
<line x1="10.297" y1="3.855" x2="10.297" y2="9.465" stroke="#FFFFFF" stroke-width="1.1" stroke-miterlimit="3.999327" stroke-linecap="round"/>
<line x1="6.096" y1="13.173" x2="35.255" y2="13.173" stroke="#FFFFFF" stroke-width="1.1" stroke-miterlimit="3.999327" stroke-linecap="round"/>
<line x1="29.737" y1="3.855" x2="29.737" y2="9.465" stroke="#FFFFFF" stroke-width="1.1" stroke-miterlimit="3.999327" stroke-linecap="round"/>
<path d="M14.048,21.887C14.78,21.887 15.373,21.348 15.373,20.685C15.373,20.021 14.78,19.482 14.048,19.482C13.316,19.482 12.723,20.021 12.723,20.685C12.723,21.348 13.316,21.887 14.048,21.887Z" fill="#FFFFFF"/>
<path d="M21.117,21.887C21.849,21.887 22.443,21.348 22.443,20.685C22.443,20.021 21.849,19.482 21.117,19.482C20.385,19.482 19.792,20.021 19.792,20.685C19.792,21.348 20.385,21.887 21.117,21.887Z" fill="#FFFFFF"/>
<path d="M28.186,21.887C28.918,21.887 29.512,21.348 29.512,20.685C29.512,20.021 28.918,19.482 28.186,19.482C27.454,19.482 26.861,20.021 26.861,20.685C26.861,21.348 27.454,21.887 28.186,21.887Z" fill="#FFFFFF"/>
<path d="M14.048,28.298C14.78,28.298 15.373,27.76 15.373,27.096C15.373,26.432 14.78,25.894 14.048,25.894C13.316,25.894 12.723,26.432 12.723,27.096C12.723,27.76 13.316,28.298 14.048,28.298Z" fill="#FFFFFF"/>
<path d="M21.117,28.298C21.849,28.298 22.443,27.76 22.443,27.096C22.443,26.432 21.849,25.894 21.117,25.894C20.385,25.894 19.792,26.432 19.792,27.096C19.792,27.76 20.385,28.298 21.117,28.298Z" fill="#FFFFFF"/>
<path d="M28.186,28.298C28.918,28.298 29.512,27.76 29.512,27.096C29.512,26.432 28.918,25.894 28.186,25.894C27.454,25.894 26.861,26.432 26.861,27.096C26.861,27.76 27.454,28.298 28.186,28.298Z" fill="#FFFFFF"/>
</svg>
