<svg width="44" height="40" viewBox="0 0 44 40" fill="none" xmlns="http://www.w3.org/2000/svg" xmlns:xlink="http://www.w3.org/1999/xlink">
<path d="M10.817,9.054L32.452,9.054L32.452,6.854L10.817,6.854L10.817,9.054ZM32.452,9.054C35.205,9.054 37.211,11.012 37.211,13.163L39.411,13.163C39.411,9.561 36.17,6.854 32.452,6.854L32.452,9.054ZM37.211,13.163L37.211,29.191L39.411,29.191L39.411,13.163L37.211,13.163ZM37.211,29.191C37.211,31.343 35.205,33.301 32.452,33.301L32.452,35.501C36.17,35.501 39.411,32.794 39.411,29.191L37.211,29.191ZM32.452,33.301L10.817,33.301L10.817,35.501L32.452,35.501L32.452,33.301ZM10.817,33.301C8.064,33.301 6.058,31.343 6.058,29.191L3.858,29.191C3.858,32.794 7.099,35.501 10.817,35.501L10.817,33.301ZM6.058,29.191L6.058,13.163L3.858,13.163L3.858,29.191L6.058,29.191ZM6.058,13.163C6.058,11.012 8.064,9.054 10.817,9.054L10.817,6.854C7.099,6.854 3.858,9.561 3.858,13.163L6.058,13.163Z" fill="#FFFFFF"/>
<line x1="11.069" y1="4.748" x2="11.069" y2="10.358" stroke="#FFFFFF" stroke-width="1.1" stroke-miterlimit="3.999327" stroke-linecap="round"/>
<line x1="6.761" y1="14.067" x2="36.508" y2="14.067" stroke="#FFFFFF" stroke-width="1.1" stroke-miterlimit="3.999327" stroke-linecap="round"/>
<line x1="30.9" y1="4.748" x2="30.9" y2="10.358" stroke="#FFFFFF" stroke-width="1.1" stroke-miterlimit="3.999327" stroke-linecap="round"/>
<path d="M14.874,22.78C15.62,22.78 16.226,22.242 16.226,21.578C16.226,20.914 15.62,20.376 14.874,20.376C14.127,20.376 13.521,20.914 13.521,21.578C13.521,22.242 14.127,22.78 14.874,22.78Z" fill="#FFFFFF"/>
<path d="M22.085,22.78C22.832,22.78 23.437,22.242 23.437,21.578C23.437,20.914 22.832,20.376 22.085,20.376C21.338,20.376 20.733,20.914 20.733,21.578C20.733,22.242 21.338,22.78 22.085,22.78Z" fill="#FFFFFF"/>
<path d="M29.296,22.78C30.043,22.78 30.649,22.242 30.649,21.578C30.649,20.914 30.043,20.376 29.296,20.376C28.55,20.376 27.944,20.914 27.944,21.578C27.944,22.242 28.55,22.78 29.296,22.78Z" fill="#FFFFFF"/>
<path d="M14.874,29.191C15.62,29.191 16.226,28.653 16.226,27.989C16.226,27.325 15.62,26.787 14.874,26.787C14.127,26.787 13.521,27.325 13.521,27.989C13.521,28.653 14.127,29.191 14.874,29.191Z" fill="#FFFFFF"/>
<path d="M22.085,29.191C22.832,29.191 23.437,28.653 23.437,27.989C23.437,27.325 22.832,26.787 22.085,26.787C21.338,26.787 20.733,27.325 20.733,27.989C20.733,28.653 21.338,29.191 22.085,29.191Z" fill="#FFFFFF"/>
<path d="M29.296,29.191C30.043,29.191 30.649,28.653 30.649,27.989C30.649,27.325 30.043,26.787 29.296,26.787C28.55,26.787 27.944,27.325 27.944,27.989C27.944,28.653 28.55,29.191 29.296,29.191Z" fill="#FFFFFF"/>
</svg>
