<svg width="44" height="38" viewBox="0 0 44 38" fill="none" xmlns="http://www.w3.org/2000/svg" xmlns:xlink="http://www.w3.org/1999/xlink">
<path d="M10.817,8.16L32.452,8.16L32.452,5.96L10.817,5.96L10.817,8.16ZM32.452,8.16C35.205,8.16 37.211,10.118 37.211,12.27L39.411,12.27C39.411,8.667 36.17,5.96 32.452,5.96L32.452,8.16ZM37.211,12.27L37.211,28.298L39.411,28.298L39.411,12.27L37.211,12.27ZM37.211,28.298C37.211,30.449 35.205,32.407 32.452,32.407L32.452,34.607C36.17,34.607 39.411,31.901 39.411,28.298L37.211,28.298ZM32.452,32.407L10.817,32.407L10.817,34.607L32.452,34.607L32.452,32.407ZM10.817,32.407C8.064,32.407 6.058,30.449 6.058,28.298L3.858,28.298C3.858,31.901 7.099,34.607 10.817,34.607L10.817,32.407ZM6.058,28.298L6.058,12.27L3.858,12.27L3.858,28.298L6.058,28.298ZM6.058,12.27C6.058,10.118 8.064,8.16 10.817,8.16L10.817,5.96C7.099,5.96 3.858,8.667 3.858,12.27L6.058,12.27Z" fill="#FFFFFF"/>
<line x1="11.069" y1="3.854" x2="11.069" y2="9.464" stroke="#FFFFFF" stroke-width="1.1" stroke-miterlimit="3.999327" stroke-linecap="round"/>
<line x1="6.761" y1="13.173" x2="36.508" y2="13.173" stroke="#FFFFFF" stroke-width="1.1" stroke-miterlimit="3.999327" stroke-linecap="round"/>
<line x1="30.9" y1="3.854" x2="30.9" y2="9.464" stroke="#FFFFFF" stroke-width="1.1" stroke-miterlimit="3.999327" stroke-linecap="round"/>
<path d="M14.874,21.886C15.62,21.886 16.226,21.348 16.226,20.684C16.226,20.02 15.62,19.482 14.874,19.482C14.127,19.482 13.521,20.02 13.521,20.684C13.521,21.348 14.127,21.886 14.874,21.886Z" fill="#FFFFFF"/>
<path d="M22.085,21.886C22.832,21.886 23.437,21.348 23.437,20.684C23.437,20.02 22.832,19.482 22.085,19.482C21.338,19.482 20.733,20.02 20.733,20.684C20.733,21.348 21.338,21.886 22.085,21.886Z" fill="#FFFFFF"/>
<path d="M29.296,21.886C30.043,21.886 30.649,21.348 30.649,20.684C30.649,20.02 30.043,19.482 29.296,19.482C28.55,19.482 27.944,20.02 27.944,20.684C27.944,21.348 28.55,21.886 29.296,21.886Z" fill="#FFFFFF"/>
<path d="M14.874,28.298C15.62,28.298 16.226,27.76 16.226,27.096C16.226,26.432 15.62,25.894 14.874,25.894C14.127,25.894 13.521,26.432 13.521,27.096C13.521,27.76 14.127,28.298 14.874,28.298Z" fill="#FFFFFF"/>
<path d="M22.085,28.298C22.832,28.298 23.437,27.76 23.437,27.096C23.437,26.432 22.832,25.894 22.085,25.894C21.338,25.894 20.733,26.432 20.733,27.096C20.733,27.76 21.338,28.298 22.085,28.298Z" fill="#FFFFFF"/>
<path d="M29.296,28.298C30.043,28.298 30.649,27.76 30.649,27.096C30.649,26.432 30.043,25.894 29.296,25.894C28.55,25.894 27.944,26.432 27.944,27.096C27.944,27.76 28.55,28.298 29.296,28.298Z" fill="#FFFFFF"/>
</svg>
