<svg width="44" height="38" viewBox="0 0 44 38" fill="none" xmlns="http://www.w3.org/2000/svg" xmlns:xlink="http://www.w3.org/1999/xlink">
<path d="M10.817,7.948L32.452,7.948L32.452,5.748L10.817,5.748L10.817,7.948ZM32.452,7.948C35.205,7.948 37.211,9.905 37.211,12.057L39.411,12.057C39.411,8.454 36.17,5.748 32.452,5.748L32.452,7.948ZM37.211,12.057L37.211,28.085L39.411,28.085L39.411,12.057L37.211,12.057ZM37.211,28.085C37.211,30.237 35.205,32.194 32.452,32.194L32.452,34.394C36.17,34.394 39.411,31.688 39.411,28.085L37.211,28.085ZM32.452,32.194L10.817,32.194L10.817,34.394L32.452,34.394L32.452,32.194ZM10.817,32.194C8.064,32.194 6.058,30.237 6.058,28.085L3.858,28.085C3.858,31.688 7.099,34.394 10.817,34.394L10.817,32.194ZM6.058,28.085L6.058,12.057L3.858,12.057L3.858,28.085L6.058,28.085ZM6.058,12.057C6.058,9.905 8.064,7.948 10.817,7.948L10.817,5.748C7.099,5.748 3.858,8.454 3.858,12.057L6.058,12.057Z" fill="#FFFFFF"/>
<line x1="11.069" y1="3.642" x2="11.069" y2="9.252" stroke="#FFFFFF" stroke-width="1.1" stroke-miterlimit="3.999327" stroke-linecap="round"/>
<line x1="6.761" y1="12.96" x2="36.508" y2="12.96" stroke="#FFFFFF" stroke-width="1.1" stroke-miterlimit="3.999327" stroke-linecap="round"/>
<line x1="30.9" y1="3.642" x2="30.9" y2="9.252" stroke="#FFFFFF" stroke-width="1.1" stroke-miterlimit="3.999327" stroke-linecap="round"/>
<path d="M14.874,21.674C15.62,21.674 16.226,21.136 16.226,20.472C16.226,19.808 15.62,19.27 14.874,19.27C14.127,19.27 13.521,19.808 13.521,20.472C13.521,21.136 14.127,21.674 14.874,21.674Z" fill="#FFFFFF"/>
<path d="M22.085,21.674C22.832,21.674 23.437,21.136 23.437,20.472C23.437,19.808 22.832,19.27 22.085,19.27C21.338,19.27 20.733,19.808 20.733,20.472C20.733,21.136 21.338,21.674 22.085,21.674Z" fill="#FFFFFF"/>
<path d="M29.296,21.674C30.043,21.674 30.649,21.136 30.649,20.472C30.649,19.808 30.043,19.27 29.296,19.27C28.55,19.27 27.944,19.808 27.944,20.472C27.944,21.136 28.55,21.674 29.296,21.674Z" fill="#FFFFFF"/>
<path d="M14.874,28.085C15.62,28.085 16.226,27.547 16.226,26.883C16.226,26.219 15.62,25.681 14.874,25.681C14.127,25.681 13.521,26.219 13.521,26.883C13.521,27.547 14.127,28.085 14.874,28.085Z" fill="#FFFFFF"/>
<path d="M22.085,28.085C22.832,28.085 23.437,27.547 23.437,26.883C23.437,26.219 22.832,25.681 22.085,25.681C21.338,25.681 20.733,26.219 20.733,26.883C20.733,27.547 21.338,28.085 22.085,28.085Z" fill="#FFFFFF"/>
<path d="M29.296,28.085C30.043,28.085 30.649,27.547 30.649,26.883C30.649,26.219 30.043,25.681 29.296,25.681C28.55,25.681 27.944,26.219 27.944,26.883C27.944,27.547 28.55,28.085 29.296,28.085Z" fill="#FFFFFF"/>
</svg>
