<svg width="44" height="40" viewBox="0 0 44 40" fill="none" xmlns="http://www.w3.org/2000/svg" xmlns:xlink="http://www.w3.org/1999/xlink">
<path d="M10.817,9.267L32.452,9.267L32.452,7.067L10.817,7.067L10.817,9.267ZM32.452,9.267C35.205,9.267 37.211,11.225 37.211,13.376L39.411,13.376C39.411,9.773 36.17,7.067 32.452,7.067L32.452,9.267ZM37.211,13.376L37.211,29.404L39.411,29.404L39.411,13.376L37.211,13.376ZM37.211,29.404C37.211,31.556 35.205,33.514 32.452,33.514L32.452,35.714C36.17,35.714 39.411,33.007 39.411,29.404L37.211,29.404ZM32.452,33.514L10.817,33.514L10.817,35.714L32.452,35.714L32.452,33.514ZM10.817,33.514C8.064,33.514 6.058,31.556 6.058,29.404L3.858,29.404C3.858,33.007 7.099,35.714 10.817,35.714L10.817,33.514ZM6.058,29.404L6.058,13.376L3.858,13.376L3.858,29.404L6.058,29.404ZM6.058,13.376C6.058,11.225 8.064,9.267 10.817,9.267L10.817,7.067C7.099,7.067 3.858,9.773 3.858,13.376L6.058,13.376Z" fill="#FFFFFF"/>
<line x1="11.069" y1="4.961" x2="11.069" y2="10.571" stroke="#FFFFFF" stroke-width="1.1" stroke-miterlimit="3.999327" stroke-linecap="round"/>
<line x1="6.761" y1="14.279" x2="36.508" y2="14.279" stroke="#FFFFFF" stroke-width="1.1" stroke-miterlimit="3.999327" stroke-linecap="round"/>
<line x1="30.9" y1="4.961" x2="30.9" y2="10.571" stroke="#FFFFFF" stroke-width="1.1" stroke-miterlimit="3.999327" stroke-linecap="round"/>
<path d="M14.874,22.993C15.62,22.993 16.226,22.455 16.226,21.791C16.226,21.127 15.62,20.589 14.874,20.589C14.127,20.589 13.521,21.127 13.521,21.791C13.521,22.455 14.127,22.993 14.874,22.993Z" fill="#FFFFFF"/>
<path d="M22.085,22.993C22.832,22.993 23.437,22.455 23.437,21.791C23.437,21.127 22.832,20.589 22.085,20.589C21.338,20.589 20.733,21.127 20.733,21.791C20.733,22.455 21.338,22.993 22.085,22.993Z" fill="#FFFFFF"/>
<path d="M29.296,22.993C30.043,22.993 30.649,22.455 30.649,21.791C30.649,21.127 30.043,20.589 29.296,20.589C28.55,20.589 27.944,21.127 27.944,21.791C27.944,22.455 28.55,22.993 29.296,22.993Z" fill="#FFFFFF"/>
<path d="M14.874,29.404C15.62,29.404 16.226,28.866 16.226,28.202C16.226,27.538 15.62,27 14.874,27C14.127,27 13.521,27.538 13.521,28.202C13.521,28.866 14.127,29.404 14.874,29.404Z" fill="#FFFFFF"/>
<path d="M22.085,29.404C22.832,29.404 23.437,28.866 23.437,28.202C23.437,27.538 22.832,27 22.085,27C21.338,27 20.733,27.538 20.733,28.202C20.733,28.866 21.338,29.404 22.085,29.404Z" fill="#FFFFFF"/>
<path d="M29.296,29.404C30.043,29.404 30.649,28.866 30.649,28.202C30.649,27.538 30.043,27 29.296,27C28.55,27 27.944,27.538 27.944,28.202C27.944,28.866 28.55,29.404 29.296,29.404Z" fill="#FFFFFF"/>
</svg>
