<svg width="50" height="50" viewBox="0 0 50 50" fill="none" xmlns="http://www.w3.org/2000/svg" xmlns:xlink="http://www.w3.org/1999/xlink">
<path d="M12.8,11.06L36.8,11.06L36.8,8.06L12.8,8.06L12.8,11.06ZM36.8,11.06C39.562,11.06 41.8,13.298 41.8,16.06L44.8,16.06C44.8,11.641 41.218,8.06 36.8,8.06L36.8,11.06ZM41.8,16.06L41.8,36.06L44.8,36.06L44.8,16.06L41.8,16.06ZM41.8,36.06C41.8,38.821 39.562,41.06 36.8,41.06L36.8,44.06C41.218,44.06 44.8,40.478 44.8,36.06L41.8,36.06ZM36.8,41.06L12.8,41.06L12.8,44.06L36.8,44.06L36.8,41.06ZM12.8,41.06C10.039,41.06 7.8,38.821 7.8,36.06L4.8,36.06C4.8,40.478 8.382,44.06 12.8,44.06L12.8,41.06ZM7.8,36.06L7.8,16.06L4.8,16.06L4.8,36.06L7.8,36.06ZM7.8,16.06C7.8,13.298 10.039,11.06 12.8,11.06L12.8,8.06C8.382,8.06 4.8,11.641 4.8,16.06L7.8,16.06Z" fill="#7D848D"/>
<line x1="12.8" y1="5.56" x2="12.8" y2="12.56" stroke="#7D848D" stroke-width="1.5" stroke-miterlimit="3.999327" stroke-linecap="round"/>
<line x1="8.3" y1="17.06" x2="41.3" y2="17.06" stroke="#7D848D" stroke-width="1.5" stroke-miterlimit="3.999327" stroke-linecap="round"/>
<line x1="34.8" y1="5.56" x2="34.8" y2="12.56" stroke="#7D848D" stroke-width="1.5" stroke-miterlimit="3.999327" stroke-linecap="round"/>
<path d="M17.3,28.06C18.129,28.06 18.8,27.388 18.8,26.56C18.8,25.731 18.129,25.06 17.3,25.06C16.472,25.06 15.8,25.731 15.8,26.56C15.8,27.388 16.472,28.06 17.3,28.06Z" fill="#7D848D"/>
<path d="M25.3,28.06C26.129,28.06 26.8,27.388 26.8,26.56C26.8,25.731 26.129,25.06 25.3,25.06C24.472,25.06 23.8,25.731 23.8,26.56C23.8,27.388 24.472,28.06 25.3,28.06Z" fill="#7D848D"/>
<path d="M33.3,28.06C34.129,28.06 34.8,27.388 34.8,26.56C34.8,25.731 34.129,25.06 33.3,25.06C32.472,25.06 31.8,25.731 31.8,26.56C31.8,27.388 32.472,28.06 33.3,28.06Z" fill="#7D848D"/>
<path d="M17.3,36.06C18.129,36.06 18.8,35.388 18.8,34.56C18.8,33.731 18.129,33.06 17.3,33.06C16.472,33.06 15.8,33.731 15.8,34.56C15.8,35.388 16.472,36.06 17.3,36.06Z" fill="#7D848D"/>
<path d="M25.3,36.06C26.129,36.06 26.8,35.388 26.8,34.56C26.8,33.731 26.129,33.06 25.3,33.06C24.472,33.06 23.8,33.731 23.8,34.56C23.8,35.388 24.472,36.06 25.3,36.06Z" fill="#7D848D"/>
<path d="M33.3,36.06C34.129,36.06 34.8,35.388 34.8,34.56C34.8,33.731 34.129,33.06 33.3,33.06C32.472,33.06 31.8,33.731 31.8,34.56C31.8,35.388 32.472,36.06 33.3,36.06Z" fill="#7D848D"/>
</svg>
