<svg width="50" height="48" viewBox="0 0 50 48" fill="none" xmlns="http://www.w3.org/2000/svg" xmlns:xlink="http://www.w3.org/1999/xlink">
<path d="M12.8,11L36.8,11L36.8,8L12.8,8L12.8,11ZM36.8,11C39.562,11 41.8,13.239 41.8,16L44.8,16C44.8,11.582 41.218,8 36.8,8L36.8,11ZM41.8,16L41.8,36L44.8,36L44.8,16L41.8,16ZM41.8,36C41.8,38.761 39.562,41 36.8,41L36.8,44C41.218,44 44.8,40.418 44.8,36L41.8,36ZM36.8,41L12.8,41L12.8,44L36.8,44L36.8,41ZM12.8,41C10.039,41 7.8,38.761 7.8,36L4.8,36C4.8,40.418 8.382,44 12.8,44L12.8,41ZM7.8,36L7.8,16L4.8,16L4.8,36L7.8,36ZM7.8,16C7.8,13.239 10.039,11 12.8,11L12.8,8C8.382,8 4.8,11.582 4.8,16L7.8,16Z" fill="#24BAEC"/>
<line x1="12.8" y1="5.5" x2="12.8" y2="12.5" stroke="#24BAEC" stroke-width="1.5" stroke-miterlimit="3.999327" stroke-linecap="round"/>
<line x1="8.3" y1="17" x2="41.3" y2="17" stroke="#24BAEC" stroke-width="1.5" stroke-miterlimit="3.999327" stroke-linecap="round"/>
<line x1="34.8" y1="5.5" x2="34.8" y2="12.5" stroke="#24BAEC" stroke-width="1.5" stroke-miterlimit="3.999327" stroke-linecap="round"/>
<path d="M17.3,28C18.129,28 18.8,27.328 18.8,26.5C18.8,25.672 18.129,25 17.3,25C16.472,25 15.8,25.672 15.8,26.5C15.8,27.328 16.472,28 17.3,28Z" fill="#24BAEC"/>
<path d="M25.3,28C26.129,28 26.8,27.328 26.8,26.5C26.8,25.672 26.129,25 25.3,25C24.472,25 23.8,25.672 23.8,26.5C23.8,27.328 24.472,28 25.3,28Z" fill="#24BAEC"/>
<path d="M33.3,28C34.129,28 34.8,27.328 34.8,26.5C34.8,25.672 34.129,25 33.3,25C32.472,25 31.8,25.672 31.8,26.5C31.8,27.328 32.472,28 33.3,28Z" fill="#24BAEC"/>
<path d="M17.3,36C18.129,36 18.8,35.328 18.8,34.5C18.8,33.672 18.129,33 17.3,33C16.472,33 15.8,33.672 15.8,34.5C15.8,35.328 16.472,36 17.3,36Z" fill="#24BAEC"/>
<path d="M25.3,36C26.129,36 26.8,35.328 26.8,34.5C26.8,33.672 26.129,33 25.3,33C24.472,33 23.8,33.672 23.8,34.5C23.8,35.328 24.472,36 25.3,36Z" fill="#24BAEC"/>
<path d="M33.3,36C34.129,36 34.8,35.328 34.8,34.5C34.8,33.672 34.129,33 33.3,33C32.472,33 31.8,33.672 31.8,34.5C31.8,35.328 32.472,36 33.3,36Z" fill="#24BAEC"/>
</svg>
