<svg width="42" height="40" viewBox="0 0 42 40" fill="none" xmlns="http://www.w3.org/2000/svg" xmlns:xlink="http://www.w3.org/1999/xlink">
<path d="M10.072,8.373L31.279,8.373L31.279,6.173L10.072,6.173L10.072,8.373ZM31.279,8.373C33.947,8.373 35.922,10.312 35.922,12.482L38.122,12.482C38.122,8.899 34.955,6.173 31.279,6.173L31.279,8.373ZM35.922,12.482L35.922,28.511L38.122,28.511L38.122,12.482L35.922,12.482ZM35.922,28.511C35.922,30.682 33.947,32.62 31.279,32.62L31.279,34.82C34.955,34.82 38.122,32.094 38.122,28.511L35.922,28.511ZM31.279,32.62L10.072,32.62L10.072,34.82L31.279,34.82L31.279,32.62ZM10.072,32.62C7.404,32.62 5.429,30.682 5.429,28.511L3.229,28.511C3.229,32.094 6.396,34.82 10.072,34.82L10.072,32.62ZM5.429,28.511L5.429,12.482L3.229,12.482L3.229,28.511L5.429,28.511ZM5.429,12.482C5.429,10.312 7.404,8.373 10.072,8.373L10.072,6.173C6.396,6.173 3.229,8.899 3.229,12.482L5.429,12.482Z" fill="#FFFFFF"/>
<line x1="10.297" y1="4.067" x2="10.297" y2="9.677" stroke="#FFFFFF" stroke-width="1.1" stroke-miterlimit="3.999327" stroke-linecap="round"/>
<line x1="6.096" y1="13.386" x2="35.255" y2="13.386" stroke="#FFFFFF" stroke-width="1.1" stroke-miterlimit="3.999327" stroke-linecap="round"/>
<line x1="29.737" y1="4.067" x2="29.737" y2="9.677" stroke="#FFFFFF" stroke-width="1.1" stroke-miterlimit="3.999327" stroke-linecap="round"/>
<path d="M14.048,22.099C14.78,22.099 15.373,21.561 15.373,20.897C15.373,20.233 14.78,19.695 14.048,19.695C13.316,19.695 12.723,20.233 12.723,20.897C12.723,21.561 13.316,22.099 14.048,22.099Z" fill="#FFFFFF"/>
<path d="M21.117,22.099C21.849,22.099 22.443,21.561 22.443,20.897C22.443,20.233 21.849,19.695 21.117,19.695C20.385,19.695 19.792,20.233 19.792,20.897C19.792,21.561 20.385,22.099 21.117,22.099Z" fill="#FFFFFF"/>
<path d="M28.186,22.099C28.918,22.099 29.512,21.561 29.512,20.897C29.512,20.233 28.918,19.695 28.186,19.695C27.454,19.695 26.861,20.233 26.861,20.897C26.861,21.561 27.454,22.099 28.186,22.099Z" fill="#FFFFFF"/>
<path d="M14.048,28.511C14.78,28.511 15.373,27.972 15.373,27.309C15.373,26.645 14.78,26.106 14.048,26.106C13.316,26.106 12.723,26.645 12.723,27.309C12.723,27.972 13.316,28.511 14.048,28.511Z" fill="#FFFFFF"/>
<path d="M21.117,28.511C21.849,28.511 22.443,27.972 22.443,27.309C22.443,26.645 21.849,26.106 21.117,26.106C20.385,26.106 19.792,26.645 19.792,27.309C19.792,27.972 20.385,28.511 21.117,28.511Z" fill="#FFFFFF"/>
<path d="M28.186,28.511C28.918,28.511 29.512,27.972 29.512,27.309C29.512,26.645 28.918,26.106 28.186,26.106C27.454,26.106 26.861,26.645 26.861,27.309C26.861,27.972 27.454,28.511 28.186,28.511Z" fill="#FFFFFF"/>
</svg>
