<svg width="36" height="26" viewBox="0 0 36 26" fill="none" xmlns="http://www.w3.org/2000/svg" xmlns:xlink="http://www.w3.org/1999/xlink">
<path d="M35.297,1.891C35.297,0.602 34.352,-0.443 33.186,-0.443L31.074,-0.443C29.909,-0.443 28.963,0.602 28.963,1.891L28.963,22.113C28.963,23.401 29.909,24.446 31.074,24.446L33.186,24.446C34.352,24.446 35.297,23.401 35.297,22.113L35.297,1.891ZM21.222,5.003L23.333,5.003C24.499,5.003 25.444,6.048 25.444,7.337L25.444,22.114C25.444,23.403 24.499,24.448 23.333,24.448L21.222,24.448C20.056,24.448 19.111,23.403 19.111,22.114L19.111,7.337C19.111,6.048 20.056,5.003 21.222,5.003ZM13.482,10.445L11.371,10.445C10.205,10.445 9.26,11.489 9.26,12.778L9.26,22.111C9.26,23.4 10.205,24.445 11.371,24.445L13.482,24.445C14.648,24.445 15.594,23.4 15.594,22.111L15.594,12.778C15.594,11.489 14.648,10.445 13.482,10.445ZM5.741,17.445C5.741,16.156 4.796,15.111 3.63,15.111L1.519,15.111C0.353,15.111 -0.592,16.156 -0.592,17.445L-0.592,22.111C-0.592,23.4 0.353,24.445 1.519,24.445L3.63,24.445C4.796,24.445 5.741,23.4 5.741,22.111L5.741,17.445Z" clip-rule="evenodd" fill-rule="evenodd" fill="#FFFFFF"/>
</svg>
