<svg width="26" height="16" viewBox="0 0 26 16" fill="none" xmlns="http://www.w3.org/2000/svg" xmlns:xlink="http://www.w3.org/1999/xlink">
<path d="M25.879,1.635C25.879,0.817 25.216,0.154 24.399,0.154L22.918,0.154C22.101,0.154 21.438,0.817 21.438,1.635L21.438,14.464C21.438,15.281 22.101,15.944 22.918,15.944L24.399,15.944C25.216,15.944 25.879,15.281 25.879,14.464L25.879,1.635ZM16.01,3.609L17.49,3.609C18.308,3.609 18.97,4.272 18.97,5.09L18.97,14.465C18.97,15.282 18.308,15.945 17.49,15.945L16.01,15.945C15.192,15.945 14.529,15.282 14.529,14.465L14.529,5.09C14.529,4.272 15.192,3.609 16.01,3.609ZM10.583,7.061L9.103,7.061C8.285,7.061 7.622,7.724 7.622,8.542L7.622,14.463C7.622,15.28 8.285,15.943 9.103,15.943L10.583,15.943C11.401,15.943 12.063,15.28 12.063,14.463L12.063,8.542C12.063,7.724 11.401,7.061 10.583,7.061ZM5.155,11.502C5.155,10.685 4.492,10.022 3.674,10.022L2.194,10.022C1.377,10.022 0.714,10.685 0.714,11.502L0.714,14.463C0.714,15.28 1.377,15.943 2.194,15.943L3.674,15.943C4.492,15.943 5.155,15.28 5.155,14.463L5.155,11.502Z" clip-rule="evenodd" fill-rule="evenodd" fill="#FFFFFF"/>
</svg>
