<svg width="28" height="30" viewBox="0 0 28 30" fill="none" xmlns="http://www.w3.org/2000/svg" xmlns:xlink="http://www.w3.org/1999/xlink">
<path d="M24.5,12.519C24.5,15.29 22.868,18.659 20.542,21.412C19.399,22.766 18.145,23.901 16.95,24.685C15.725,25.49 14.705,25.833 14,25.833L14,28.833C15.545,28.833 17.15,28.143 18.597,27.193C20.074,26.222 21.539,24.881 22.833,23.348C25.382,20.331 27.5,16.293 27.5,12.519L24.5,12.519ZM14,25.833C13.295,25.833 12.275,25.49 11.05,24.685C9.855,23.901 8.601,22.766 7.458,21.412C5.132,18.659 3.5,15.29 3.5,12.519L0.5,12.519C0.5,16.293 2.618,20.331 5.167,23.348C6.461,24.881 7.926,26.222 9.403,27.193C10.85,28.143 12.455,28.833 14,28.833L14,25.833ZM3.5,12.519C3.5,6.819 8.183,2.167 14,2.167L14,-0.833C6.562,-0.833 0.5,5.127 0.5,12.519L3.5,12.519ZM14,2.167C19.817,2.167 24.5,6.819 24.5,12.519L27.5,12.519C27.5,5.127 21.438,-0.833 14,-0.833L14,2.167Z" fill="#7D848D"/>
</svg>
