<svg width="50" height="58" viewBox="0 0 50 58" fill="none" xmlns="http://www.w3.org/2000/svg" xmlns:xlink="http://www.w3.org/1999/xlink">
<path d="M14.131,55.538C13.466,56.383 12.238,56.533 11.434,55.818C5.745,50.758 2,43.841 0.892,36.266C-0.309,28.047 1.687,19.681 6.47,12.89C11.252,6.099 18.456,1.4 26.599,-0.238C34.104,-1.748 41.879,-0.553 48.56,3.098C49.504,3.614 49.777,4.821 49.205,5.732L49.205,5.732C48.634,6.643 47.435,6.912 46.487,6.404C40.654,3.278 33.895,2.266 27.367,3.579C20.202,5.021 13.862,9.156 9.653,15.132C5.445,21.108 3.688,28.47 4.745,35.703C5.708,42.291 8.939,48.314 13.848,52.753C14.646,53.474 14.797,54.693 14.131,55.538L14.131,55.538Z" fill="#FFFFF1"/>
</svg>
