<svg width="88" height="74" viewBox="0 0 88 74" fill="none" xmlns="http://www.w3.org/2000/svg" xmlns:xlink="http://www.w3.org/1999/xlink">
<path d="M85.994,37C85.994,57.435 67.005,74 43.582,74C20.158,74 1.17,57.435 1.17,37C1.17,16.565 20.158,0 43.582,0C67.005,0 85.994,16.565 85.994,37Z" fill="#FFDFE6"/>
<path d="M18.672,54.541L15.997,74L-0.534,74L0.014,70.773C0.214,68.651 0.823,66.613 1.781,64.713C3.406,61.545 6.09,58.966 9.384,57.197L9.384,57.192C9.553,57.098 9.723,57.018 9.891,56.928C12.539,55.597 15.536,54.765 18.672,54.541Z" fill="#186BE7"/>
<path d="M86.724,74L70.146,74L67.298,53.241C69.179,53.375 71.017,53.728 72.754,54.282C77.77,55.864 81.986,59.073 84.189,63.421C85.147,65.307 85.751,67.35 85.956,69.473L86.724,74Z" fill="#186BE7"/>
<path d="M75.621,55.588L72.795,74L11.915,74L9.384,57.197L9.384,57.192C9.553,57.098 9.723,57.018 9.892,56.928C13.711,54.963 22.383,52.702 28.577,51.236C32.948,50.202 37.456,49.689 41.986,49.707L46.802,49.727C50.165,49.74 53.516,50.048 56.809,50.643C62.139,51.606 70.047,53.151 72.752,54.282C73.789,54.706 74.746,55.145 75.621,55.588Z" fill="#24BAEC"/>
<path d="M57.175,31.764C57.175,31.764 58.54,35.03 52.436,36.928L52.861,63.62L34.752,56.539L36.359,41.11L43.307,38.505L44.963,35.895C44.963,35.895 47.368,33.188 47.659,32.921C47.949,32.655 50.522,30.68 50.522,30.68L56.051,32.135L57.175,31.764Z" fill="#FAB9C9"/>
<path d="M49.318,39.667C50.454,35.741 47.519,35.886 44.226,37.059L43.309,38.505L36.862,40.922L36.18,43.015L35.542,49.697C35.542,49.697 46.997,47.693 49.318,39.667Z" fill="#1B1E28"/>
<path d="M31.344,29.588C31.344,29.588 26.32,27.602 28.085,23.096C29.849,18.589 29.893,18.59 29.527,16.466C29.16,14.342 30.096,9.054 37.207,10.536C44.318,12.018 45.281,12.178 48.911,10.855C52.54,9.533 57.547,12.418 56.766,19.431C56.102,25.391 54.654,23.742 56.031,26.934C57.408,30.126 56.598,30.924 54.185,31.427C48.595,32.593 45.88,30.269 45.88,30.159C45.88,30.049 44.777,27.605 44.088,27.285C43.399,26.964 37.106,25.442 36.968,25.602C36.831,25.762 34.753,28.276 34.753,28.276L31.344,29.588Z" fill="#1B1E28"/>
<path d="M28.474,30.249C30.516,30.346 32.586,30.259 34.632,30.243C34.792,30.241 34.792,30.024 34.632,30.025C32.586,30.039 30.514,29.982 28.474,30.109C28.371,30.115 28.37,30.245 28.474,30.249Z" fill="#1B1E28"/>
<path d="M31.356,23.437L31.356,37.2C31.356,37.2 30.863,43.735 36.486,43.997C42.11,44.259 45.501,44.016 47.325,42.275C49.15,40.533 50.867,37.425 49.578,29.167C48.291,20.909 46.939,19.505 46.939,19.505L39.92,17.651L33.287,18.662L31.356,23.437Z" fill="#FAB9C9"/>
<path d="M31.347,37.783C31.382,39.39 31.895,43.784 36.487,43.997C42.11,44.259 45.501,44.016 47.326,42.275C48.684,40.978 49.981,38.922 50.025,34.551C50.017,33.129 49.882,31.476 49.579,29.534C49.403,28.4 49.246,27.37 49.105,26.43C47.981,20.587 46.94,19.505 46.94,19.505L39.921,17.651L33.287,18.662L31.445,23.217L31.356,23.804L31.356,23.944C31.356,23.944 31.694,23.186 33.095,23.228C34.496,23.27 34.35,22.694 35.992,21.107C37.635,19.52 38.44,21.528 39.737,22.469C41.035,23.41 42.867,22.16 44.991,22.104C47.117,22.048 46.698,24.267 46.296,24.871C45.893,25.475 45.523,26.332 46.811,26.739C48.099,27.146 48.549,27.328 48.711,30.081C48.871,32.834 48.018,34.786 46.392,35.713C44.766,36.64 41.337,36.429 38.955,34.842C36.572,33.255 33.988,34.779 32.741,35.249C32.082,35.497 31.443,35.176 31.356,35.129L31.356,37.2L31.356,37.567C31.356,37.567 31.35,37.647 31.347,37.783Z" fill="#E5A0B1"/>
<path d="M36.213,27.002C35.958,28.769 35.654,30.764 35.922,32.533C36.021,33.183 36.461,33.686 37.466,33.503C37.723,33.456 37.614,33.187 37.357,33.224C35.777,33.449 36.321,30.592 36.336,30.09C36.368,29.061 36.425,28.032 36.412,27.002C36.411,26.91 36.226,26.914 36.213,27.002Z" fill="#EAAABA"/>
<path d="M39.51,31.641C39.964,31.641 40.332,31.32 40.332,30.924C40.332,30.528 39.964,30.207 39.51,30.207C39.056,30.207 38.688,30.528 38.688,30.924C38.688,31.32 39.056,31.641 39.51,31.641Z" fill="#1B1E28"/>
<path d="M33.268,31.641C33.722,31.641 34.091,31.32 34.091,30.924C34.091,30.528 33.722,30.207 33.268,30.207C32.814,30.207 32.446,30.528 32.446,30.924C32.446,31.32 32.814,31.641 33.268,31.641Z" fill="#1B1E28"/>
<path d="M31.754,28.425C32.237,28.256 32.636,28.018 33.17,27.961C33.76,27.897 34.233,28.046 34.779,28.208C35.005,28.275 35.094,28.002 34.93,27.895C34.057,27.327 32.238,27.419 31.599,28.249C31.535,28.331 31.643,28.465 31.754,28.425Z" fill="#1B1E28"/>
<path d="M38.794,28.203C39.3,28.031 39.7,27.84 40.267,27.863C40.834,27.886 41.296,28.09 41.818,28.252C42.046,28.322 42.131,28.047 41.969,27.939C41.144,27.389 39.31,27.17 38.638,28.027C38.573,28.109 38.683,28.24 38.794,28.203Z" fill="#1B1E28"/>
<path d="M43.746,32.294C44.038,32.92 43.484,33.707 42.509,34.053C41.534,34.399 40.508,34.172 40.216,33.547C39.925,32.922 40.479,32.135 41.454,31.789C42.429,31.444 43.456,31.67 43.746,32.294Z" fill="#EAAABA"/>
<path d="M32.66,31.927C32.215,31.752 31.755,31.7 31.354,31.751L31.354,34.145C31.398,34.165 31.443,34.185 31.49,34.203C32.47,34.587 33.528,34.389 33.85,33.76C34.174,33.132 33.64,32.311 32.66,31.927Z" fill="#EAAABA"/>
<path d="M35.548,29.734C35.717,31.266 34.754,32.752 32.98,33.16C30.98,33.62 28.945,32.421 28.636,30.659C28.347,29.002 29.664,27.45 31.561,27.196C33.528,26.935 35.162,28.111 35.551,29.756C35.577,29.863 35.762,29.818 35.737,29.712C35.332,27.998 33.583,26.73 31.519,27.014C29.529,27.289 28.134,28.944 28.426,30.683C28.717,32.419 30.638,33.648 32.62,33.394C34.687,33.13 35.934,31.482 35.741,29.733C35.729,29.627 35.536,29.626 35.548,29.734Z" fill="#1B1E28"/>
<path d="M44.406,30.278C44.304,31.935 42.879,33.336 40.901,33.336C39,33.336 37.395,31.935 37.395,30.278C37.395,28.735 38.78,27.413 40.526,27.254C42.642,27.063 44.295,28.476 44.406,30.278C44.412,30.386 44.606,30.387 44.599,30.278C44.491,28.525 42.998,27.052 40.901,27.052C38.894,27.052 37.192,28.521 37.202,30.278C37.211,31.973 38.761,33.406 40.704,33.495C42.877,33.595 44.487,32.098 44.599,30.278C44.606,30.17 44.413,30.17 44.406,30.278Z" fill="#1B1E28"/>
<path d="M35.574,30.093C36.104,30.175 36.741,30.179 37.274,30.113C37.349,30.105 37.349,29.992 37.274,29.983C36.741,29.918 36.106,29.922 35.574,30.004C35.523,30.011 35.523,30.084 35.574,30.093Z" fill="#1B1E28"/>
<path d="M44.347,30.149C46.389,30.246 48.46,30.159 50.505,30.143C50.665,30.141 50.665,29.924 50.505,29.925C48.459,29.939 46.387,29.882 44.347,30.009C44.244,30.015 44.243,30.144 44.347,30.149Z" fill="#1B1E28"/>
<path d="M57.162,31.764C55.636,28.37 49.788,30.68 49.788,30.68L49.313,34L52.195,33.04C52.299,33.265 54.985,33.31 54.985,33.31L57.162,31.764Z" fill="#FAB9C9"/>
<path d="M52.058,30.843C53.661,30.629 55.209,31.854 55.027,33.283C54.999,33.508 54.592,33.51 54.62,33.283C54.769,32.108 53.533,31.003 52.166,31.185C51.91,31.22 51.8,30.878 52.058,30.843Z" fill="#E5A0B1"/>
<path d="M54.277,31.886C53.606,32.142 53.103,32.615 52.884,33.228C52.807,33.446 52.413,33.353 52.492,33.134C52.739,32.439 53.305,31.871 54.072,31.579C54.31,31.489 54.518,31.794 54.277,31.886Z" fill="#E5A0B1"/>
<path d="M33.698,11.905C31.346,13.292 30.865,15.929 31.951,18.118C31.986,18.19 32.104,18.128 32.07,18.058C31.016,15.933 31.479,13.358 33.767,12.009C33.841,11.966 33.771,11.861 33.698,11.905Z" fill="#BFAAAA"/>
<path d="M29.606,26.714C29.803,27.061 29.983,27.411 30.225,27.736C30.273,27.8 30.393,27.74 30.344,27.675C30.101,27.35 29.921,27 29.725,26.653C29.686,26.584 29.567,26.645 29.606,26.714Z" fill="#BFAAAA"/>
<path d="M47.007,22.877C47.007,23.011 47.007,23.144 47.007,23.278C47.007,23.355 47.143,23.355 47.143,23.278C47.143,23.144 47.143,23.011 47.143,22.877C47.143,22.8 47.007,22.8 47.007,22.877Z" fill="#BFAAAA"/>
<path d="M46.83,24.61C46.789,24.659 46.78,24.721 46.739,24.77C46.686,24.832 46.805,24.892 46.858,24.831C46.9,24.782 46.908,24.72 46.949,24.67C47.002,24.608 46.882,24.548 46.83,24.61Z" fill="#BFAAAA"/>
<path d="M54.811,24.36C54.649,25.71 54.68,26.791 55.272,28.062C55.305,28.133 55.438,28.102 55.405,28.031C54.823,26.78 54.79,25.683 54.949,24.36C54.958,24.282 54.82,24.283 54.811,24.36Z" fill="#BFAAAA"/>
<path d="M36.486,43.998C42.11,44.26 45.5,44.016 47.325,42.275C49.15,40.533 50.867,37.425 49.578,29.167C48.291,20.909 48.028,17.968 48.028,17.968L43.135,15.653L32.449,16.225L31.356,23.437L31.356,23.577C31.356,23.577 31.693,22.819 33.094,22.861C34.495,22.903 34.35,22.327 35.992,20.74C37.634,19.153 38.439,21.161 39.737,22.102C41.034,23.043 42.866,21.793 44.991,21.737C47.116,21.681 46.697,23.9 46.295,24.504C45.892,25.108 45.522,25.964 46.811,26.372C48.098,26.779 48.549,26.961 48.71,29.714C48.871,32.467 48.018,34.419 46.392,35.346C44.766,36.273 41.337,36.062 38.954,34.475C36.572,32.888 33.987,34.412 32.74,34.882C32.082,35.13 31.443,34.809 31.356,34.762L31.356,37.2C31.356,37.2 30.863,43.736 36.486,43.998Z" fill="#1B1E28"/>
<path d="M30.697,19.351C30.747,20.612 29.865,21.637 29.319,22.753C28.934,23.542 28.879,24.397 28.906,25.241C28.908,25.318 29.046,25.319 29.044,25.241C29.002,23.957 29.338,22.954 29.98,21.81C30.444,20.986 30.872,20.29 30.835,19.351C30.832,19.273 30.694,19.273 30.697,19.351Z" fill="#BFAAAA"/>
<path d="M46.965,13.558C48.589,13.775 50.248,13.476 51.847,13.872C54.957,14.641 54.233,18.67 53.263,20.563C53.227,20.633 53.346,20.694 53.382,20.623C54.35,18.733 54.74,16.279 53.226,14.517C51.893,12.966 48.854,13.689 47.002,13.442C46.916,13.431 46.878,13.546 46.965,13.558Z" fill="#BFAAAA"/>
<path d="M39.105,19.912C39.244,23.539 44.456,19.509 46.245,21.317C46.303,21.375 46.4,21.29 46.342,21.231C44.516,19.385 39.373,23.317 39.243,19.911C39.24,19.834 39.102,19.834 39.105,19.912Z" fill="#BFAAAA"/>
<path d="M36.281,44.085C38.588,44.098 40.932,44.342 43.229,44.049C45.702,43.733 47.385,42.894 48.673,41.019C48.719,40.953 48.6,40.892 48.554,40.959C47.14,43.014 45.177,43.773 42.501,43.997C40.434,44.17 38.35,43.976 36.281,43.964C36.192,43.964 36.192,44.084 36.281,44.085Z" fill="#BFAAAA"/>
<path d="M35.949,36.283C36.528,37.409 38.918,36.956 38.921,35.726C38.921,35.594 38.714,35.546 38.638,35.659C38.369,36.06 38.192,36.436 37.617,36.565C37.015,36.701 36.575,36.423 36.113,36.14C36.004,36.074 35.906,36.198 35.949,36.283Z" fill="#BFAAAA"/>
<path d="M35.225,52.972C40.234,58.09 45.699,57.423 51.46,52.972L51.461,73.999L35.225,73.999L35.225,52.972L35.225,52.972Z" fill="#E3EEF1"/>
<path d="M35.664,47.661L24.279,51.07C29.524,58.922 32.3,66.542 32.276,73.902L37.364,73.902C39.971,65.961 39.08,57.132 35.664,47.661Z" fill="#186BE7"/>
<path d="M52.478,47.661L63.864,51.07C58.618,58.922 55.843,66.542 55.867,73.902L50.778,73.902C48.172,65.961 49.063,57.132 52.478,47.661Z" fill="#186BE7"/>
</svg>
