<svg width="46" height="44" viewBox="0 0 46 44" fill="none" xmlns="http://www.w3.org/2000/svg" xmlns:xlink="http://www.w3.org/1999/xlink">
<path d="M0.663,16.136C0.016,16.653 -0.089,17.597 0.429,18.244C0.946,18.891 1.89,18.996 2.537,18.479L0.663,16.136ZM19.607,2.902L20.544,4.073L20.544,4.073L19.607,2.902ZM24.748,2.902L23.811,4.073L23.811,4.073L24.748,2.902ZM41.818,18.479C42.465,18.996 43.409,18.891 43.926,18.244C44.444,17.597 44.339,16.653 43.692,16.136L41.818,18.479ZM2.537,18.479L20.544,4.073L18.67,1.731L0.663,16.136L2.537,18.479ZM20.544,4.073C21.499,3.309 22.856,3.309 23.811,4.073L25.686,1.731C23.635,0.09 20.72,0.09 18.67,1.731L20.544,4.073ZM23.811,4.073L41.818,18.479L43.692,16.136L25.686,1.731L23.811,4.073Z" fill="#24BAEC"/>
<path d="M16.987,5.062L17.933,6.226L17.933,6.226L16.987,5.062ZM8.756,11.75L7.811,10.586L7.811,10.586L8.756,11.75ZM6.115,14.411L4.761,13.766L4.761,13.766L6.115,14.411ZM8.127,39.589L9.187,38.529L9.187,38.528L8.127,39.589ZM36.229,39.589L35.168,38.528L35.168,38.529L36.229,39.589ZM38.24,14.411L39.595,13.766L39.595,13.766L38.24,14.411ZM35.599,11.75L36.545,10.586L36.545,10.586L35.599,11.75ZM27.368,5.062L28.314,3.898L28.314,3.898L27.368,5.062ZM16.042,3.898L7.811,10.586L9.702,12.914L17.933,6.226L16.042,3.898ZM7.811,10.586C6.427,11.71 5.34,12.549 4.761,13.766L7.47,15.055C7.689,14.594 8.097,14.218 9.702,12.914L7.811,10.586ZM4.761,13.766C4.182,14.983 4.216,16.355 4.216,18.138L7.216,18.138C7.216,16.07 7.25,15.517 7.47,15.055L4.761,13.766ZM4.216,18.138L4.216,25.538L7.216,25.538L7.216,18.138L4.216,18.138ZM4.216,25.538C4.216,29.376 4.213,32.405 4.531,34.77C4.854,37.177 5.535,39.119 7.066,40.65L9.187,38.528C8.307,37.648 7.783,36.445 7.504,34.37C7.219,32.252 7.216,29.461 7.216,25.538L4.216,25.538ZM7.066,40.65C8.597,42.18 10.539,42.862 12.946,43.185C15.311,43.503 18.34,43.5 22.178,43.5L22.178,40.5C18.255,40.5 15.464,40.497 13.346,40.212C11.271,39.933 10.068,39.409 9.187,38.529L7.066,40.65ZM22.178,43.5C26.016,43.5 29.045,43.503 31.409,43.185C33.817,42.862 35.759,42.18 37.29,40.65L35.168,38.529C34.288,39.409 33.085,39.933 31.01,40.212C28.891,40.497 26.1,40.5 22.178,40.5L22.178,43.5ZM37.29,40.65C38.82,39.119 39.501,37.177 39.825,34.77C40.143,32.405 40.14,29.376 40.14,25.538L37.14,25.538C37.14,29.461 37.137,32.252 36.852,34.37C36.573,36.445 36.049,37.648 35.168,38.528L37.29,40.65ZM40.14,25.538L40.14,18.138L37.14,18.138L37.14,25.538L40.14,25.538ZM40.14,18.138C40.14,16.355 40.174,14.983 39.595,13.766L36.886,15.055C37.106,15.517 37.14,16.07 37.14,18.138L40.14,18.138ZM39.595,13.766C39.015,12.549 37.929,11.71 36.545,10.586L34.653,12.914C36.258,14.218 36.666,14.594 36.886,15.055L39.595,13.766ZM36.545,10.586L28.314,3.898L26.422,6.226L34.653,12.914L36.545,10.586ZM28.314,3.898C27.1,2.912 26.086,2.084 25.186,1.519C24.252,0.933 23.296,0.532 22.178,0.532L22.178,3.532C22.521,3.532 22.917,3.637 23.591,4.06C24.3,4.505 25.15,5.193 26.422,6.226L28.314,3.898ZM22.178,0.532C21.06,0.532 20.104,0.933 19.169,1.519C18.27,2.084 17.255,2.912 16.042,3.898L17.933,6.226C19.205,5.193 20.056,4.505 20.765,4.06C21.439,3.637 21.835,3.532 22.178,3.532L22.178,0.532Z" fill="#24BAEC"/>
<line x1="17.547" y1="28.668" x2="26.807" y2="28.668" stroke="#24BAEC" stroke-width="1.5" stroke-miterlimit="3.999327" stroke-linecap="round"/>
</svg>
