<svg width="46" height="44" viewBox="0 0 46 44" fill="none" xmlns="http://www.w3.org/2000/svg" xmlns:xlink="http://www.w3.org/1999/xlink">
<path d="M0.663,16.195C0.016,16.713 -0.089,17.657 0.429,18.304C0.946,18.951 1.89,19.055 2.537,18.538L0.663,16.195ZM19.607,2.961L20.544,4.133L20.544,4.133L19.607,2.961ZM24.748,2.961L23.811,4.133L23.811,4.133L24.748,2.961ZM41.818,18.538C42.465,19.055 43.409,18.951 43.926,18.304C44.444,17.657 44.339,16.713 43.692,16.195L41.818,18.538ZM2.537,18.538L20.544,4.133L18.67,1.79L0.663,16.195L2.537,18.538ZM20.544,4.133C21.499,3.369 22.856,3.369 23.811,4.133L25.686,1.79C23.635,0.149 20.72,0.149 18.67,1.79L20.544,4.133ZM23.811,4.133L41.818,18.538L43.692,16.195L25.686,1.79L23.811,4.133Z" fill="#7D848D"/>
<path d="M16.987,5.122L17.933,6.286L17.933,6.286L16.987,5.122ZM8.756,11.81L7.811,10.645L7.811,10.645L8.756,11.81ZM6.115,14.47L4.761,13.825L4.761,13.825L6.115,14.47ZM8.127,39.649L9.187,38.588L9.187,38.588L8.127,39.649ZM36.229,39.649L35.168,38.588L35.168,38.588L36.229,39.649ZM38.24,14.47L39.595,13.826L39.595,13.825L38.24,14.47ZM35.599,11.81L36.545,10.645L36.545,10.645L35.599,11.81ZM27.368,5.122L28.314,3.958L28.314,3.958L27.368,5.122ZM16.042,3.958L7.811,10.645L9.702,12.974L17.933,6.286L16.042,3.958ZM7.811,10.645C6.427,11.77 5.34,12.609 4.761,13.825L7.47,15.115C7.689,14.653 8.097,14.278 9.702,12.974L7.811,10.645ZM4.761,13.825C4.182,15.042 4.216,16.415 4.216,18.198L7.216,18.198C7.216,16.13 7.25,15.576 7.47,15.115L4.761,13.825ZM4.216,18.198L4.216,25.598L7.216,25.598L7.216,18.198L4.216,18.198ZM4.216,25.598C4.216,29.435 4.213,32.465 4.531,34.829C4.854,37.237 5.535,39.179 7.066,40.709L9.187,38.588C8.307,37.708 7.783,36.505 7.504,34.429C7.219,32.311 7.216,29.52 7.216,25.598L4.216,25.598ZM7.066,40.709C8.597,42.24 10.539,42.921 12.946,43.245C15.311,43.563 18.34,43.56 22.178,43.56L22.178,40.56C18.255,40.56 15.464,40.556 13.346,40.272C11.271,39.993 10.068,39.468 9.187,38.588L7.066,40.709ZM22.178,43.56C26.016,43.56 29.045,43.563 31.409,43.245C33.817,42.921 35.759,42.24 37.29,40.709L35.168,38.588C34.288,39.468 33.085,39.993 31.01,40.272C28.891,40.556 26.1,40.56 22.178,40.56L22.178,43.56ZM37.29,40.709C38.82,39.179 39.501,37.237 39.825,34.829C40.143,32.465 40.14,29.435 40.14,25.598L37.14,25.598C37.14,29.52 37.137,32.311 36.852,34.429C36.573,36.505 36.049,37.708 35.168,38.588L37.29,40.709ZM40.14,25.598L40.14,18.198L37.14,18.198L37.14,25.598L40.14,25.598ZM40.14,18.198C40.14,16.415 40.174,15.042 39.595,13.826L36.886,15.115C37.106,15.576 37.14,16.13 37.14,18.198L40.14,18.198ZM39.595,13.825C39.015,12.609 37.929,11.77 36.545,10.645L34.653,12.974C36.258,14.278 36.666,14.653 36.886,15.115L39.595,13.825ZM36.545,10.645L28.314,3.958L26.422,6.286L34.653,12.974L36.545,10.645ZM28.314,3.958C27.1,2.971 26.086,2.144 25.186,1.579C24.252,0.992 23.296,0.592 22.178,0.592L22.178,3.592C22.521,3.592 22.917,3.696 23.591,4.12C24.3,4.565 25.15,5.252 26.422,6.286L28.314,3.958ZM22.178,0.592C21.06,0.592 20.104,0.992 19.169,1.579C18.27,2.144 17.255,2.971 16.042,3.958L17.933,6.286C19.205,5.252 20.056,4.565 20.765,4.12C21.439,3.696 21.835,3.592 22.178,3.592L22.178,0.592Z" fill="#7D848D"/>
<line x1="17.547" y1="28.728" x2="26.807" y2="28.728" stroke="#7D848D" stroke-width="1.5" stroke-miterlimit="3.999327" stroke-linecap="round"/>
</svg>
