<svg width="670" height="262" viewBox="0 0 670 262" fill="none" xmlns="http://www.w3.org/2000/svg" xmlns:xlink="http://www.w3.org/1999/xlink">
<g filter="url(#filter49_593)">
<path d="M0,48C0,33.09 0,25.635 2.436,19.754C5.684,11.913 11.913,5.684 19.754,2.436C25.635,0 33.09,0 48,0L622,0C636.91,0 644.366,0 650.246,2.436C658.086,5.684 664.316,11.913 667.564,19.754C670,25.635 670,33.09 670,48L670,214C670,228.91 670,236.366 667.564,242.246C664.316,250.086 658.086,256.316 650.246,259.564C644.366,262 636.91,262 622,262L48,262C33.09,262 25.635,262 19.754,259.564C11.913,256.316 5.684,250.086 2.436,242.246C0,236.366 0,228.91 0,214L0,48Z" fill="#FFFFFF"/>
</g>
<path d="M602.829,183.063C603.346,182.416 604.29,182.311 604.937,182.829L614,190.079L623.063,182.829C623.71,182.311 624.654,182.416 625.171,183.063C625.689,183.71 625.584,184.654 624.937,185.171L614.937,193.171C614.389,193.61 613.611,193.61 613.063,193.171L603.063,185.171C602.416,184.654 602.311,183.71 602.829,183.063Z" clip-rule="evenodd" fill-rule="evenodd" transform="rotate(180 614 188)" fill="#7D848D"/>
<line x1="0" y1="126.5" x2="670" y2="126.5" stroke="#F7F7F9" stroke-width="1.5" stroke-miterlimit="3.999327" stroke-linecap="round"/>
<path d="M602.829,67.063C603.346,66.416 604.29,66.311 604.937,66.829L614,74.079L623.063,66.829C623.71,66.311 624.654,66.416 625.171,67.063C625.689,67.71 625.584,68.654 624.937,69.171L614.937,77.171C614.389,77.61 613.611,77.61 613.063,77.171L603.063,69.171C602.416,68.654 602.311,67.71 602.829,67.063Z" clip-rule="evenodd" fill-rule="evenodd" transform="rotate(180 614 72)" fill="#7D848D"/>
<path d="M68.5,83C68.5,84.059 67.603,85.421 65.229,86.608C62.944,87.75 59.684,88.5 56,88.5L56,91.5C60.048,91.5 63.788,90.683 66.57,89.291C69.263,87.945 71.5,85.807 71.5,83L68.5,83ZM56,88.5C52.316,88.5 49.056,87.75 46.771,86.608C44.397,85.421 43.5,84.059 43.5,83L40.5,83C40.5,85.807 42.737,87.945 45.43,89.291C48.212,90.683 51.952,91.5 56,91.5L56,88.5ZM43.5,83C43.5,81.941 44.397,80.579 46.771,79.392C49.056,78.25 52.316,77.5 56,77.5L56,74.5C51.952,74.5 48.212,75.317 45.43,76.709C42.737,78.055 40.5,80.193 40.5,83L43.5,83ZM56,77.5C59.684,77.5 62.944,78.25 65.229,79.392C67.603,80.579 68.5,81.941 68.5,83L71.5,83C71.5,80.193 69.263,78.055 66.57,76.709C63.788,75.317 60.048,74.5 56,74.5L56,77.5Z" fill="#7D848D"/>
<circle cx="56" cy="62" r="8" stroke="#7D848D" stroke-width="1.5" stroke-miterlimit="3.999327" stroke-linejoin="round"/>
<defs>
<filter id="filter49_593" x="-16" y="-16" width="367" height="163" filterUnits="userSpaceOnUse" color-interpolation-filters="sRGB">
<feFlood flood-opacity="0" result="BackgroundImageFix"/>
<feColorMatrix in="SourceAlpha" type="matrix" values="0 0 0 0 0 0 0 0 0 0 0 0 0 0 0 0 0 0 127 0" result="hardAlpha"/>
<feMorphology radius="0" operator="dilate" in="SourceAlpha" result="0dropshadow"/>
<feOffset dx="0" dy="6"/>
<feGaussianBlur stdDeviation="8"/>
<feComposite in2="hardAlpha" operator="out"/>
<feColorMatrix type="matrix" values="0 0 0 0 0.741176 0 0 0 0 0.776471 0 0 0 0 0.827451 0 0 0 0.12 0"/>
<feBlend mode="normal" in2="BackgroundImageFix" result="0dropshadow"/>
<feBlend mode="normal" in="SourceGraphic" in2="0dropshadow" result="shape"/>
</filter>
</defs>
</svg>
