<svg width="280" height="260" viewBox="0 0 280 260" fill="none" xmlns="http://www.w3.org/2000/svg" xmlns:xlink="http://www.w3.org/1999/xlink">
<path d="M276,130C276,201.796 215.558,260 141,260C66.442,260 6,201.796 6,130C6,58.203 66.442,0 141,0C215.558,0 276,58.203 276,130Z" fill="#FFDFE6"/>
<path d="M61.707,191.631L53.194,259.999L0.576,259.999L2.32,248.663C2.955,241.205 4.894,234.044 7.945,227.368C13.116,216.238 21.658,207.179 32.145,200.961L32.145,200.943C32.682,200.613 33.223,200.332 33.76,200.017C42.188,195.339 51.727,192.417 61.707,191.631Z" fill="#186BE7"/>
<path d="M278.322,259.999L225.555,259.999L216.488,187.062C222.476,187.535 228.328,188.775 233.855,190.72C249.821,196.279 263.24,207.554 270.253,222.83C273.303,229.458 275.226,236.635 275.878,244.094L278.322,259.999Z" fill="#186BE7"/>
<path d="M242.984,195.308L233.988,260L40.2,260L32.146,200.961L32.146,200.943C32.682,200.613 33.223,200.332 33.76,200.016C45.918,193.113 73.52,185.17 93.238,180.018C107.15,176.385 121.5,174.584 135.919,174.647L151.25,174.716C161.954,174.763 172.62,175.843 183.103,177.936C200.068,181.318 225.239,186.748 233.852,190.721C237.15,192.211 240.196,193.753 242.984,195.308Z" fill="#FF7029"/>
<path d="M184.267,111.604C184.267,111.604 188.613,123.079 169.182,129.747L170.533,223.531L112.894,198.652L118.009,144.44L140.122,135.289L145.395,126.116C145.395,126.116 153.05,116.606 153.975,115.67C154.898,114.732 163.088,107.794 163.088,107.794L180.689,112.909L184.267,111.604Z" fill="#FAB9C9"/>
<path d="M159.257,139.372C162.872,125.575 153.531,126.088 143.049,130.209L140.129,135.288L119.61,143.779L117.437,151.134L115.409,174.611C115.408,174.611 151.87,167.571 159.257,139.372Z" fill="#1B1E28"/>
<path d="M102.045,103.958C102.045,103.958 86.054,96.979 91.671,81.147C97.287,65.314 97.426,65.315 96.261,57.852C95.093,50.39 98.074,31.813 120.708,37.018C143.343,42.224 146.408,42.786 157.961,38.14C169.513,33.494 185.451,43.632 182.965,68.27C180.853,89.211 176.243,83.419 180.625,94.635C185.008,105.849 182.43,108.652 174.75,110.42C156.956,114.515 148.313,106.35 148.313,105.964C148.313,105.579 144.804,96.991 142.611,95.865C140.417,94.739 120.386,89.389 119.949,89.952C119.51,90.514 112.898,99.349 112.898,99.349L102.045,103.958Z" fill="#1B1E28"/>
<path d="M92.909,106.281C99.408,106.622 105.999,106.315 112.509,106.258C113.018,106.253 113.02,105.49 112.509,105.494C105.999,105.544 99.403,105.342 92.909,105.79C92.581,105.811 92.579,106.267 92.909,106.281Z" fill="#1B1E28"/>
<path d="M102.082,82.346L102.082,130.704C102.082,130.704 100.513,153.666 118.413,154.586C136.313,155.507 147.106,154.653 152.915,148.533C158.722,142.414 164.188,131.493 160.086,102.479C155.988,73.463 151.685,68.53 151.685,68.53L129.343,62.016L108.229,65.569L102.082,82.346Z" fill="#FAB9C9"/>
<path d="M102.054,132.752C102.164,138.397 103.799,153.835 118.413,154.586C136.313,155.506 147.106,154.652 152.915,148.533C157.238,143.977 161.367,136.755 161.508,121.394C161.481,116.4 161.05,110.59 160.087,103.767C159.526,99.783 159.026,96.164 158.58,92.862C154.999,72.332 151.686,68.531 151.686,68.531L129.344,62.017L108.23,65.569L102.366,81.573L102.082,83.635L102.082,84.128C102.082,84.128 103.158,81.463 107.617,81.612C112.076,81.76 111.614,79.736 116.84,74.16C122.069,68.585 124.63,75.64 128.76,78.946C132.89,82.252 138.721,77.86 145.484,77.663C152.25,77.465 150.916,85.262 149.637,87.385C148.354,89.506 147.176,92.516 151.278,93.948C155.376,95.378 156.809,96.019 157.324,105.69C157.835,115.362 155.12,122.222 149.943,125.477C144.769,128.735 133.854,127.994 126.269,122.419C118.685,116.842 110.459,122.198 106.491,123.849C104.394,124.72 102.361,123.592 102.083,123.427L102.083,130.703L102.083,131.991C102.082,131.993 102.064,132.273 102.054,132.752Z" fill="#E5A0B1"/>
<path d="M117.544,94.871C116.732,101.08 115.764,108.09 116.618,114.305C116.932,116.588 118.332,118.355 121.533,117.712C122.351,117.547 122.003,116.604 121.185,116.733C116.156,117.525 117.886,107.485 117.934,105.723C118.037,102.105 118.218,98.49 118.178,94.871C118.173,94.549 117.583,94.561 117.544,94.871Z" fill="#EAAABA"/>
<path d="M128.04,111.173C129.485,111.173 130.657,110.045 130.657,108.653C130.657,107.261 129.485,106.133 128.04,106.133C126.594,106.133 125.423,107.261 125.423,108.653C125.423,110.045 126.594,111.173 128.04,111.173Z" fill="#1B1E28"/>
<path d="M108.171,111.173C109.616,111.173 110.788,110.045 110.788,108.653C110.788,107.261 109.616,106.133 108.171,106.133C106.726,106.133 105.554,107.261 105.554,108.653C105.554,110.045 106.726,111.173 108.171,111.173Z" fill="#1B1E28"/>
<path d="M103.351,99.874C104.886,99.279 106.159,98.443 107.858,98.243C109.735,98.017 111.24,98.542 112.978,99.109C113.699,99.344 113.982,98.387 113.46,98.011C110.681,96.014 104.891,96.338 102.857,99.254C102.654,99.543 102.996,100.013 103.351,99.874Z" fill="#1B1E28"/>
<path d="M125.76,99.091C127.372,98.49 128.642,97.818 130.447,97.897C132.252,97.979 133.723,98.697 135.386,99.264C136.111,99.512 136.38,98.544 135.866,98.166C133.239,96.234 127.401,95.463 125.264,98.472C125.056,98.761 125.405,99.223 125.76,99.091Z" fill="#1B1E28"/>
<path d="M141.522,113.466C142.45,115.664 140.687,118.429 137.583,119.644C134.479,120.86 131.213,120.063 130.286,117.866C129.358,115.673 131.122,112.907 134.226,111.691C137.328,110.478 140.596,111.271 141.522,113.466Z" fill="#EAAABA"/>
<path d="M106.236,112.175C104.819,111.563 103.354,111.377 102.077,111.559L102.077,119.968C102.218,120.04 102.361,120.11 102.511,120.174C105.631,121.522 108.997,120.826 110.024,118.615C111.053,116.409 109.356,113.526 106.236,112.175Z" fill="#EAAABA"/>
<path d="M115.427,104.471C115.965,109.855 112.899,115.075 107.252,116.509C100.886,118.125 94.411,113.914 93.428,107.721C92.506,101.898 96.699,96.445 102.736,95.555C108.996,94.636 114.2,98.77 115.437,104.55C115.518,104.925 116.11,104.765 116.028,104.394C114.74,98.37 109.173,93.917 102.603,94.916C96.268,95.88 91.828,101.695 92.757,107.806C93.685,113.905 99.798,118.223 106.108,117.331C112.688,116.402 116.655,110.612 116.042,104.469C116.003,104.096 115.389,104.093 115.427,104.471Z" fill="#1B1E28"/>
<path d="M143.622,106.383C143.296,112.204 138.763,117.128 132.464,117.128C126.416,117.128 121.305,112.204 121.305,106.383C121.305,100.96 125.716,96.316 131.271,95.758C138.008,95.087 143.27,100.05 143.622,106.383C143.643,106.761 144.258,106.764 144.237,106.383C143.891,100.224 139.14,95.046 132.464,95.046C126.076,95.046 120.66,100.21 120.691,106.383C120.72,112.337 125.655,117.373 131.839,117.685C138.756,118.035 143.879,112.778 144.237,106.383C144.259,106.001 143.644,106.001 143.622,106.383Z" fill="#1B1E28"/>
<path d="M115.511,105.731C117.199,106.019 119.224,106.034 120.923,105.805C121.161,105.773 121.161,105.377 120.923,105.345C119.224,105.119 117.202,105.131 115.511,105.419C115.347,105.446 115.347,105.702 115.511,105.731Z" fill="#1B1E28"/>
<path d="M143.433,105.931C149.933,106.271 156.524,105.964 163.034,105.907C163.543,105.903 163.545,105.139 163.034,105.142C156.523,105.193 149.928,104.991 143.433,105.437C143.106,105.46 143.104,105.914 143.433,105.931Z" fill="#1B1E28"/>
<path d="M184.226,111.604C179.367,99.678 160.754,107.794 160.754,107.794L159.244,119.46L168.416,116.087C168.746,116.878 177.297,117.036 177.297,117.036L184.226,111.604Z" fill="#FAB9C9"/>
<path d="M167.98,108.367C173.082,107.615 178.009,111.919 177.429,116.94C177.341,117.73 176.044,117.738 176.132,116.94C176.609,112.813 172.674,108.93 168.323,109.57C167.507,109.691 167.156,108.489 167.98,108.367Z" fill="#E5A0B1"/>
<path d="M175.042,112.032C172.904,112.931 171.304,114.593 170.606,116.746C170.361,117.513 169.109,117.186 169.358,116.415C170.145,113.975 171.947,111.98 174.388,110.954C175.147,110.636 175.808,111.71 175.042,112.032Z" fill="#E5A0B1"/>
<path d="M109.539,41.83C102.053,46.702 100.521,55.967 103.977,63.659C104.089,63.909 104.466,63.693 104.356,63.446C101.001,55.982 102.477,46.934 109.76,42.194C109.994,42.042 109.773,41.675 109.539,41.83Z" fill="#FFFFFF"/>
<path d="M96.515,93.859C97.142,95.078 97.716,96.309 98.489,97.45C98.643,97.677 99.024,97.466 98.868,97.237C98.093,96.095 97.52,94.864 96.894,93.647C96.769,93.403 96.39,93.617 96.515,93.859Z" fill="#FFFFFF"/>
<path d="M151.903,80.378C151.903,80.848 151.903,81.316 151.903,81.786C151.903,82.058 152.342,82.058 152.342,81.786C152.342,81.316 152.342,80.848 152.342,80.378C152.342,80.106 151.903,80.106 151.903,80.378Z" fill="#FFFFFF"/>
<path d="M151.339,86.467C151.206,86.64 151.179,86.858 151.047,87.031C150.878,87.25 151.259,87.46 151.426,87.244C151.56,87.071 151.587,86.853 151.718,86.68C151.886,86.461 151.505,86.25 151.339,86.467Z" fill="#FFFFFF"/>
<path d="M176.743,85.588C176.226,90.332 176.325,94.129 178.214,98.597C178.32,98.845 178.743,98.738 178.637,98.486C176.78,94.091 176.674,90.237 177.182,85.588C177.213,85.316 176.772,85.319 176.743,85.588Z" fill="#FFFFFF"/>
<path d="M118.412,154.586C136.312,155.507 147.106,154.652 152.914,148.533C158.721,142.414 164.187,131.492 160.086,102.479C155.988,73.463 155.15,63.131 155.15,63.131L139.578,54.999L105.561,57.006L102.082,82.345L102.082,82.838C102.082,82.838 103.157,80.175 107.617,80.321C112.076,80.47 111.613,78.446 116.84,72.871C122.068,67.296 124.63,74.351 128.759,77.657C132.889,80.962 138.721,76.571 145.484,76.374C152.25,76.176 150.915,83.972 149.636,86.095C148.354,88.217 147.175,91.227 151.277,92.658C155.375,94.089 156.808,94.729 157.324,104.4C157.834,114.072 155.119,120.932 149.943,124.188C144.768,127.445 133.853,126.705 126.269,121.129C118.685,115.553 110.458,120.909 106.49,122.56C104.394,123.43 102.36,122.302 102.083,122.138L102.083,130.703C102.082,130.704 100.513,153.665 118.412,154.586Z" fill="#1B1E28"/>
<path d="M99.985,67.989C100.145,72.423 97.337,76.022 95.6,79.944C94.372,82.716 94.197,85.721 94.284,88.685C94.291,88.957 94.73,88.959 94.722,88.685C94.589,84.175 95.66,80.651 97.704,76.63C99.178,73.734 100.542,71.29 100.424,67.989C100.414,67.718 99.975,67.717 99.985,67.989Z" fill="#FFFFFF"/>
<path d="M151.771,47.637C156.939,48.398 162.221,47.347 167.31,48.738C177.21,51.442 174.903,65.596 171.817,72.248C171.702,72.494 172.081,72.708 172.195,72.46C175.277,65.819 176.52,57.197 171.7,51.008C167.455,45.557 157.784,48.097 151.888,47.23C151.612,47.189 151.492,47.596 151.771,47.637Z" fill="#FFFFFF"/>
<path d="M126.747,69.96C127.189,82.705 143.782,68.545 149.475,74.896C149.659,75.102 149.969,74.803 149.785,74.597C143.971,68.109 127.601,81.923 127.187,69.959C127.178,69.688 126.739,69.687 126.747,69.96Z" fill="#FFFFFF"/>
<path d="M117.759,154.893C125.105,154.939 132.564,155.797 139.876,154.766C147.749,153.656 153.105,150.708 157.206,144.122C157.351,143.888 156.972,143.677 156.826,143.91C152.327,151.133 146.076,153.797 137.56,154.585C130.981,155.194 124.346,154.511 117.759,154.47C117.478,154.468 117.478,154.891 117.759,154.893Z" fill="#FFFFFF"/>
<path d="M116.705,127.481C118.547,131.439 126.155,129.846 126.162,125.524C126.162,125.063 125.504,124.891 125.262,125.29C124.405,126.697 123.843,128.019 122.013,128.473C120.096,128.95 118.697,127.974 117.225,126.979C116.878,126.746 116.567,127.184 116.705,127.481Z" fill="#FFFFFF"/>
<path d="M114.398,186.12C130.344,204.102 147.738,201.756 166.078,186.12L166.08,259.999L114.399,259.999L114.399,186.12L114.398,186.12Z" fill="#E3EEF1"/>
<path d="M115.797,167.458L79.558,179.435C96.253,207.022 105.087,233.796 105.011,259.655L121.208,259.655C129.507,231.755 126.669,200.734 115.797,167.458Z" fill="#186BE7"/>
<path d="M169.315,167.458L205.555,179.435C188.858,207.022 180.025,233.796 180.1,259.655L163.903,259.655C155.607,231.755 158.444,200.734 169.315,167.458Z" fill="#186BE7"/>
</svg>
