<svg width="40" height="40" viewBox="0 0 40 40" fill="none" xmlns="http://www.w3.org/2000/svg" xmlns:xlink="http://www.w3.org/1999/xlink">
<path d="M34.5,19C34.5,19.828 35.172,20.5 36,20.5C36.828,20.5 37.5,19.828 37.5,19L34.5,19ZM19,37.5C19.828,37.5 20.5,36.828 20.5,36C20.5,35.172 19.828,34.5 19,34.5L19,37.5ZM37.5,19C37.5,8.782 29.218,0.5 19,0.5L19,3.5C27.562,3.5 34.5,10.438 34.5,19L37.5,19ZM19,0.5C8.782,0.5 0.5,8.782 0.5,19L3.5,19C3.5,10.438 10.438,3.5 19,3.5L19,0.5ZM0.5,19C0.5,29.218 8.782,37.5 19,37.5L19,34.5C10.438,34.5 3.5,27.562 3.5,19L0.5,19Z" fill="#7D848D"/>
<path d="M35.601,33.479C35.015,32.894 34.065,32.894 33.479,33.479C32.894,34.065 32.894,35.015 33.479,35.601L35.601,33.479ZM36.939,39.061C37.525,39.646 38.475,39.646 39.061,39.061C39.646,38.475 39.646,37.525 39.061,36.939L36.939,39.061ZM33.479,35.601L36.939,39.061L39.061,36.939L35.601,33.479L33.479,35.601Z" fill="#7D848D"/>
<path d="M35.596,26.404C35.01,25.818 34.061,25.818 33.475,26.404C32.889,26.99 32.889,27.939 33.475,28.525L35.596,26.404ZM34.536,34.536L33.475,33.475L33.475,33.475L34.536,34.536ZM27.464,34.536L28.525,33.475L28.525,33.475L27.464,34.536ZM27.464,27.464L28.525,28.525L28.525,28.525L27.464,27.464ZM33.475,28.525C34.061,29.111 35.01,29.111 35.596,28.525C36.182,27.939 36.182,26.99 35.596,26.404L33.475,28.525ZM33.475,28.525C34.842,29.892 34.842,32.108 33.475,33.475L35.596,35.596C38.135,33.058 38.135,28.942 35.596,26.404L33.475,28.525ZM33.475,33.475C32.108,34.842 29.892,34.842 28.525,33.475L26.404,35.596C28.942,38.135 33.058,38.135 35.596,35.596L33.475,33.475ZM28.525,33.475C27.158,32.108 27.158,29.892 28.525,28.525L26.404,26.404C23.865,28.942 23.865,33.058 26.404,35.596L28.525,33.475ZM28.525,28.525C29.892,27.158 32.108,27.158 33.475,28.525L35.596,26.404C33.058,23.865 28.942,23.865 26.404,26.404L28.525,28.525Z" fill="#7D848D"/>
<path d="M3.774,25.062C2.945,25.062 2.274,25.733 2.274,26.562C2.274,27.39 2.945,28.062 3.774,28.062L3.774,25.062ZM12.944,3.76C12.944,2.931 12.272,2.26 11.444,2.26C10.616,2.26 9.944,2.931 9.944,3.76L12.944,3.76ZM3.774,28.062L3.89,28.062L3.89,25.062L3.774,25.062L3.774,28.062ZM3.89,28.062C6.642,28.062 9.352,28.006 11.356,27.098C12.425,26.614 13.338,25.873 13.96,24.774C14.569,23.699 14.834,22.398 14.834,20.896L11.834,20.896C11.834,22.064 11.626,22.808 11.35,23.295C11.087,23.759 10.701,24.101 10.118,24.366C8.815,24.956 6.804,25.062 3.89,25.062L3.89,28.062ZM14.834,20.896C14.834,19.753 15.113,18.965 15.494,18.352C15.893,17.709 16.446,17.186 17.127,16.618C17.745,16.103 18.614,15.446 19.254,14.701C19.96,13.877 20.5,12.834 20.5,11.452L17.5,11.452C17.5,11.958 17.332,12.333 16.976,12.748C16.552,13.242 16.005,13.648 15.207,14.313C14.471,14.926 13.608,15.701 12.945,16.77C12.263,17.869 11.834,19.206 11.834,20.896L14.834,20.896ZM20.5,11.452C20.5,9.86 19.754,8.708 18.799,7.885C17.91,7.117 16.774,6.579 15.861,6.149C14.855,5.676 14.094,5.322 13.55,4.896C13.071,4.52 12.944,4.233 12.944,3.896L9.944,3.896C9.944,5.447 10.761,6.521 11.699,7.257C12.572,7.941 13.7,8.448 14.583,8.864C15.559,9.323 16.312,9.701 16.839,10.156C17.301,10.555 17.5,10.932 17.5,11.452L20.5,11.452ZM12.944,3.896L12.944,3.76L9.944,3.76L9.944,3.896L12.944,3.896Z" fill="#7D848D"/>
<path d="M36,20.5C36.828,20.5 37.5,19.828 37.5,19C37.5,18.171 36.828,17.5 36,17.5L36,20.5ZM26.216,10.878L25.095,9.881L25.094,9.882L26.216,10.878ZM31.399,7.302C31.949,6.683 31.893,5.735 31.274,5.184C30.655,4.634 29.707,4.69 29.157,5.309L31.399,7.302ZM36,17.5L29.864,17.5L29.864,20.5L36,20.5L36,17.5ZM29.864,17.5C26.949,17.5 25.4,14.055 27.337,11.874L25.094,9.882C21.439,13.997 24.359,20.5 29.864,20.5L29.864,17.5ZM27.337,11.874L31.399,7.302L29.157,5.309L25.095,9.881L27.337,11.874Z" fill="#7D848D"/>
</svg>
