<svg width="74" height="70" viewBox="0 0 74 70" fill="none" xmlns="http://www.w3.org/2000/svg" xmlns:xlink="http://www.w3.org/1999/xlink">
<path d="M33.95,57.748C31.993,57.748 30.027,57.748 28.071,57.748C24.04,57.748 20,57.748 15.969,57.748C12.624,57.748 9.287,57.748 5.942,57.748C5.398,57.748 4.846,57.714 4.303,57.748C3.993,57.764 4.403,57.814 4.244,57.756C4.161,57.723 4.069,57.714 3.977,57.689C4.261,57.781 3.726,57.522 3.835,57.606C3.952,57.698 3.55,57.247 3.717,57.497C3.676,57.439 3.642,57.372 3.609,57.313C3.475,57.105 3.609,57.439 3.575,57.213C3.575,57.213 3.525,56.871 3.533,57.055C3.55,57.313 3.55,56.779 3.542,56.996C3.542,56.996 3.542,56.996 3.542,56.988C3.542,56.979 3.542,56.963 3.542,56.954C3.542,56.812 3.542,56.67 3.542,56.528C3.542,54.624 3.542,52.712 3.542,50.808C3.542,47.376 3.542,43.935 3.542,40.503C3.542,36.36 3.542,32.218 3.542,28.085C3.542,24.059 3.542,20.034 3.542,16.009C3.542,12.919 3.542,9.821 3.542,6.731C3.542,5.42 3.609,4.083 3.542,2.772C3.542,2.764 3.542,2.764 3.542,2.756C3.542,2.689 3.559,2.522 3.525,2.747C3.533,2.672 3.559,2.605 3.575,2.53C3.609,2.33 3.592,2.455 3.567,2.522C3.584,2.48 3.776,2.171 3.692,2.288C3.6,2.405 4.052,2.004 3.801,2.171C3.86,2.129 3.927,2.096 3.985,2.062C4.253,1.895 3.851,2.087 4.035,2.046C4.127,2.021 4.211,1.996 4.303,1.979C4.236,1.987 4.077,1.987 4.311,1.996C4.311,1.996 4.311,1.996 4.32,1.996C4.42,1.996 4.512,1.996 4.612,1.996C5.231,1.996 5.842,1.996 6.461,1.996C9.045,1.996 11.621,1.996 14.205,1.996C17.968,1.996 21.731,1.996 25.495,1.996C29.701,1.996 33.9,1.996 38.106,1.996C42.003,1.996 45.909,1.996 49.806,1.996C52.658,1.996 55.518,1.996 58.37,1.996C59.173,1.996 59.975,1.996 60.778,1.996C60.987,1.996 61.188,1.996 61.397,1.996C61.447,1.996 61.497,1.996 61.539,1.996C61.548,1.996 61.556,1.996 61.564,1.996C61.564,1.996 61.564,1.996 61.573,1.996C61.355,2.004 61.899,2.004 61.631,1.987C61.481,1.979 61.799,2.029 61.84,2.046C62.016,2.096 61.623,1.895 61.891,2.062C61.949,2.104 62.016,2.138 62.074,2.171C61.824,2.004 62.275,2.405 62.183,2.288C62.1,2.171 62.35,2.714 62.267,2.43C62.292,2.513 62.309,2.614 62.334,2.697C62.392,2.856 62.342,2.447 62.325,2.756C62.325,2.797 62.325,2.839 62.325,2.873C62.325,3.165 62.325,3.457 62.325,3.749C62.325,5.019 62.325,6.288 62.325,7.557C62.325,11.516 62.325,15.483 62.325,19.441C62.325,22.815 62.325,26.189 62.325,29.554C62.325,30.089 62.325,30.615 62.325,31.149C62.325,31.801 62.902,32.435 63.58,32.402C64.257,32.369 64.834,31.851 64.834,31.149C64.834,29.087 64.834,27.024 64.834,24.97C64.834,20.861 64.834,16.752 64.834,12.635C64.834,9.587 64.834,6.547 64.834,3.499C64.834,3.265 64.843,3.023 64.834,2.789C64.809,1.369 63.956,0.133 62.61,-0.343C62.033,-0.543 61.431,-0.518 60.828,-0.518C58.763,-0.518 56.705,-0.518 54.64,-0.518C51.119,-0.518 47.607,-0.518 44.086,-0.518C39.879,-0.518 35.681,-0.518 31.474,-0.518C27.368,-0.518 23.27,-0.518 19.164,-0.518C15.911,-0.518 12.666,-0.518 9.413,-0.518C7.774,-0.518 6.143,-0.518 4.504,-0.518C2.622,-0.518 1.083,0.826 1.041,2.756C1.033,3.131 1.041,3.507 1.041,3.883C1.041,6.196 1.041,8.518 1.041,10.831C1.041,14.522 1.041,18.222 1.041,21.913C1.041,26.155 1.041,30.398 1.041,34.632C1.041,38.557 1.041,42.473 1.041,46.399C1.041,49.138 1.041,51.885 1.041,54.624C1.041,55.292 1.041,55.961 1.041,56.637C1.041,56.746 1.041,56.862 1.041,56.971C1.075,58.483 2.12,59.877 3.642,60.169C4.353,60.303 5.114,60.245 5.833,60.245C7.238,60.245 8.643,60.245 10.057,60.245C14.138,60.245 18.219,60.245 22.3,60.245C25.67,60.245 29.041,60.245 32.411,60.245C32.929,60.245 33.448,60.245 33.975,60.245C34.627,60.245 35.263,59.668 35.229,58.992C35.171,58.324 34.652,57.748 33.95,57.748Z" fill="#D8D692"/>
<path d="M33.95,57.748C32.093,57.748 30.237,57.748 28.372,57.748C24.483,57.748 20.594,57.748 16.705,57.748C13.318,57.748 9.94,57.748 6.553,57.748C5.825,57.748 5.098,57.757 4.37,57.748C4.286,57.748 4.077,57.731 4.286,57.765C4.194,57.748 4.111,57.723 4.019,57.698C3.843,57.648 4.236,57.848 3.969,57.681C3.91,57.64 3.843,57.606 3.785,57.573C3.835,57.606 3.935,57.731 3.793,57.564C3.743,57.514 3.693,57.464 3.642,57.414C3.801,57.598 3.659,57.422 3.626,57.364C3.592,57.297 3.525,57.088 3.592,57.322C3.559,57.214 3.525,57.114 3.509,57.005C3.534,57.18 3.525,57.055 3.525,56.963C3.525,56.905 3.525,56.855 3.525,56.796C3.525,56.571 3.525,56.345 3.525,56.12C3.525,52.788 3.525,49.456 3.525,46.123C3.525,46.04 3.525,45.956 3.525,45.873C3.4,46.165 3.283,46.466 3.157,46.758C6.051,43.894 8.944,41.029 11.838,38.165C12.248,37.764 12.649,37.363 13.059,36.962C12.465,36.962 11.88,36.962 11.286,36.962C12.566,38.232 13.837,39.493 15.116,40.762C17.149,42.775 19.181,44.796 21.213,46.808C21.681,47.268 22.141,47.735 22.61,48.195C23.095,48.671 23.898,48.671 24.383,48.195C25.311,47.268 26.248,46.341 27.176,45.414C29.417,43.192 31.65,40.962 33.891,38.741C36.601,36.052 39.311,33.355 42.02,30.666C44.362,28.336 46.703,26.014 49.045,23.684C50.174,22.557 51.387,21.479 52.457,20.293C52.474,20.277 52.491,20.26 52.507,20.243C51.914,20.243 51.328,20.243 50.734,20.243C52.081,21.58 53.427,22.907 54.782,24.244C56.923,26.356 59.056,28.469 61.197,30.582C61.69,31.066 62.183,31.559 62.677,32.043C63.162,32.519 63.973,32.519 64.45,32.043C64.926,31.567 64.935,30.749 64.45,30.273C63.103,28.937 61.757,27.609 60.402,26.273C58.261,24.16 56.129,22.047 53.988,19.934C53.494,19.45 53.001,18.957 52.507,18.473C52.022,17.997 51.219,17.989 50.734,18.473C49.806,19.4 48.869,20.327 47.941,21.254C45.7,23.475 43.467,25.705 41.226,27.926C38.516,30.615 35.806,33.313 33.097,36.002C30.755,38.332 28.414,40.653 26.072,42.983C24.943,44.111 23.73,45.188 22.66,46.374C22.643,46.391 22.626,46.407 22.61,46.424C23.203,46.424 23.789,46.424 24.383,46.424C23.103,45.155 21.832,43.894 20.552,42.624C18.52,40.612 16.488,38.591 14.456,36.578C13.987,36.119 13.527,35.651 13.059,35.192C12.574,34.716 11.771,34.716 11.286,35.192C8.342,38.09 5.399,41.013 2.455,43.927C2.104,44.278 1.727,44.612 1.393,44.979C0.857,45.564 1.025,46.574 1.025,47.301C1.025,49.848 1.025,52.387 1.025,54.934C1.025,55.61 1.008,56.295 1.025,56.972C1.067,58.8 2.488,60.22 4.328,60.254C5.39,60.279 6.461,60.254 7.523,60.254C12.549,60.254 17.583,60.254 22.61,60.254C26.331,60.254 30.053,60.254 33.783,60.254C33.841,60.254 33.9,60.254 33.958,60.254C34.611,60.254 35.246,59.677 35.213,59.001C35.171,58.324 34.652,57.748 33.95,57.748Z" fill="#D8D692"/>
<path d="M22.869,15.273C22.869,15.39 22.869,15.507 22.861,15.624C22.861,15.682 22.852,15.741 22.844,15.799C22.827,15.999 22.877,15.607 22.844,15.807C22.802,16.05 22.743,16.283 22.668,16.526C22.635,16.634 22.593,16.734 22.559,16.843C22.643,16.617 22.509,16.943 22.484,17.002C22.375,17.219 22.242,17.411 22.116,17.62C22.108,17.636 21.999,17.778 22.083,17.67C22.175,17.553 22.033,17.728 22.008,17.753C21.932,17.837 21.865,17.92 21.79,17.995C21.623,18.162 21.447,18.329 21.263,18.471C21.447,18.329 21.18,18.521 21.113,18.563C21.021,18.622 20.929,18.68 20.828,18.73C20.728,18.78 20.636,18.83 20.536,18.881C20.485,18.906 20.435,18.931 20.385,18.947C20.552,18.872 20.419,18.931 20.318,18.964C20.109,19.039 19.892,19.098 19.666,19.148C19.616,19.156 19.315,19.206 19.44,19.19C19.582,19.173 19.39,19.19 19.382,19.198C19.281,19.206 19.189,19.215 19.089,19.215C18.855,19.223 18.62,19.215 18.386,19.19C18.236,19.181 18.411,19.198 18.436,19.198C18.378,19.19 18.328,19.181 18.269,19.164C18.119,19.139 17.977,19.098 17.826,19.064C17.717,19.031 17.609,18.997 17.508,18.964C17.458,18.947 17.399,18.922 17.349,18.906C17.366,18.914 17.525,18.981 17.391,18.922C17.157,18.814 16.931,18.688 16.714,18.555C16.672,18.53 16.438,18.363 16.53,18.43C16.622,18.496 16.396,18.321 16.362,18.288C16.17,18.121 15.995,17.937 15.827,17.745C15.794,17.703 15.76,17.661 15.727,17.62C15.744,17.636 15.836,17.77 15.76,17.653C15.685,17.544 15.618,17.444 15.551,17.336C15.493,17.244 15.443,17.144 15.392,17.043C15.367,16.993 15.342,16.943 15.317,16.893C15.309,16.868 15.217,16.659 15.267,16.793C15.309,16.901 15.208,16.626 15.192,16.576C15.15,16.45 15.116,16.325 15.083,16.2C15.058,16.091 15.033,15.974 15.016,15.866C15.016,15.849 14.983,15.665 15.008,15.807C15.024,15.949 14.999,15.715 14.999,15.69C14.983,15.44 14.974,15.181 14.991,14.93C14.999,14.847 15.033,14.588 14.999,14.805C15.024,14.672 15.049,14.546 15.075,14.413C15.133,14.179 15.208,13.945 15.292,13.72C15.217,13.92 15.309,13.686 15.342,13.611C15.409,13.477 15.476,13.352 15.551,13.227C15.61,13.135 15.677,13.043 15.727,12.951C15.852,12.759 15.643,13.026 15.794,12.859C15.961,12.667 16.137,12.475 16.321,12.308C16.404,12.233 16.488,12.166 16.572,12.099C16.404,12.225 16.613,12.083 16.672,12.041C16.889,11.899 17.115,11.782 17.341,11.665C17.55,11.557 17.232,11.699 17.45,11.623C17.558,11.59 17.659,11.548 17.767,11.515C17.893,11.481 18.018,11.448 18.152,11.415C18.227,11.398 18.562,11.356 18.328,11.373C18.562,11.348 18.796,11.34 19.03,11.34C19.164,11.34 19.298,11.356 19.44,11.365C19.591,11.373 19.415,11.356 19.39,11.356C19.465,11.365 19.54,11.381 19.616,11.398C19.892,11.456 20.159,11.54 20.427,11.632C20.561,11.682 20.402,11.615 20.385,11.607C20.452,11.64 20.519,11.665 20.586,11.699C20.703,11.757 20.812,11.816 20.929,11.882C21.054,11.957 21.171,12.041 21.297,12.125C21.414,12.2 21.28,12.108 21.263,12.091C21.322,12.133 21.38,12.183 21.43,12.233C21.623,12.4 21.807,12.584 21.974,12.776C22.024,12.834 22.066,12.884 22.116,12.943C22.041,12.843 22.058,12.859 22.116,12.951C22.183,13.06 22.258,13.168 22.325,13.277C22.392,13.386 22.451,13.502 22.509,13.619C22.543,13.686 22.576,13.753 22.601,13.82C22.551,13.703 22.568,13.728 22.601,13.828C22.685,14.079 22.76,14.329 22.819,14.588C22.835,14.663 22.844,14.738 22.861,14.814C22.844,14.688 22.852,14.705 22.861,14.822C22.861,14.964 22.869,15.114 22.869,15.273C22.877,15.924 23.438,16.559 24.123,16.526C24.801,16.492 25.386,15.974 25.378,15.273C25.344,12.517 23.622,10.12 21.037,9.177C18.579,8.275 15.627,9.093 13.971,11.114C12.24,13.219 11.938,16.233 13.36,18.597C14.782,20.952 17.533,22.104 20.218,21.595C23.203,21.027 25.336,18.263 25.369,15.273C25.378,14.621 24.784,13.987 24.115,14.02C23.438,14.054 22.877,14.571 22.869,15.273Z" fill="#D8D692"/>
<path d="M72.612,54.658C70.513,52.186 68.422,49.706 66.323,47.234C64.801,45.439 63.279,43.643 61.757,41.839C60.921,40.854 60.118,39.835 59.248,38.875C58.646,38.207 57.642,38.248 57.074,38.925C56.756,39.301 56.43,39.685 56.112,40.061C54.816,41.589 53.528,43.117 52.232,44.645C49.555,47.802 46.879,50.967 44.203,54.124C43.835,54.558 43.35,55.017 43.35,55.619C43.35,56.512 44.103,57.03 44.931,57.03C45.282,57.03 45.633,57.03 45.984,57.03C48.134,57.03 50.283,57.03 52.432,57.03C52.6,57.03 52.758,57.03 52.926,57.03C52.508,56.612 52.089,56.195 51.671,55.777C51.671,58.241 51.671,60.705 51.671,63.168C51.671,64.379 51.671,65.59 51.671,66.801C51.671,66.893 51.663,66.993 51.671,67.093C51.721,67.886 52.273,68.454 53.076,68.504C53.327,68.521 53.595,68.504 53.846,68.504C56.823,68.504 59.8,68.504 62.777,68.504C63.923,68.504 65.662,68.763 65.738,67.093C65.78,66.175 65.738,65.239 65.738,64.321C65.738,61.531 65.738,58.742 65.738,55.961C65.738,55.903 65.738,55.844 65.738,55.786C65.32,56.203 64.901,56.621 64.483,57.038C66.725,57.038 68.966,57.038 71.207,57.038C71.341,57.038 71.475,57.047 71.609,57.038C71.968,57.022 72.336,56.913 72.595,56.646C73.089,56.145 73.089,55.527 72.821,54.917C72.554,54.299 71.642,54.157 71.107,54.466C70.463,54.842 70.388,55.56 70.655,56.178C70.664,56.203 70.68,56.228 70.689,56.253C70.647,55.928 70.605,55.61 70.563,55.285C70.555,55.31 70.555,55.335 70.546,55.36C70.655,55.176 70.764,54.992 70.873,54.809C70.856,54.825 70.839,54.85 70.822,54.867C71.006,54.759 71.19,54.65 71.374,54.541C71.625,54.466 71.684,54.525 71.441,54.525C71.274,54.525 71.098,54.525 70.931,54.525C70.371,54.525 69.811,54.525 69.242,54.525C67.954,54.525 66.666,54.525 65.378,54.525C65.077,54.525 64.784,54.525 64.483,54.525C63.806,54.525 63.229,55.101 63.229,55.777C63.229,59.084 63.229,62.391 63.229,65.698C63.229,66.033 63.229,66.375 63.229,66.709C63.229,66.801 63.229,66.901 63.229,66.993C63.237,67.16 63.162,67.177 63.254,66.843C63.363,66.659 63.471,66.475 63.58,66.291C63.563,66.308 63.547,66.325 63.53,66.342C63.714,66.233 63.898,66.124 64.082,66.016C64.4,65.932 64.408,65.999 64.266,65.991C64.191,65.991 64.115,65.991 64.04,65.991C63.764,65.991 63.488,65.991 63.204,65.991C62.317,65.991 61.439,65.991 60.553,65.991C58.529,65.991 56.513,65.991 54.49,65.991C54.155,65.991 53.812,65.991 53.478,65.991C53.377,65.991 53.277,65.991 53.185,65.991C53.026,65.999 53.018,65.924 53.344,66.016C53.528,66.124 53.712,66.233 53.896,66.342C53.879,66.325 53.862,66.308 53.846,66.291C53.954,66.475 54.063,66.659 54.172,66.843C54.255,67.16 54.189,67.168 54.197,67.026C54.197,66.951 54.197,66.876 54.197,66.801C54.197,66.525 54.197,66.25 54.197,65.974C54.197,65.064 54.197,64.162 54.197,63.252C54.197,61.231 54.197,59.21 54.197,57.197C54.197,56.729 54.197,56.253 54.197,55.786C54.197,55.109 53.62,54.533 52.942,54.533C50.559,54.533 48.176,54.533 45.792,54.533C45.55,54.533 45.299,54.533 45.056,54.533C44.989,54.533 44.914,54.533 44.847,54.533C44.697,54.541 44.747,54.475 45.023,54.55C45.207,54.658 45.391,54.767 45.575,54.875C45.558,54.859 45.541,54.834 45.524,54.817C45.633,55.001 45.742,55.184 45.851,55.368C45.842,55.343 45.842,55.318 45.834,55.293C45.792,55.619 45.75,55.936 45.708,56.262C45.608,56.487 45.508,56.487 45.642,56.329C45.734,56.22 45.826,56.111 45.918,56.003C46.244,55.619 46.561,55.243 46.888,54.859C47.958,53.598 49.029,52.337 50.099,51.067C52.508,48.22 54.924,45.372 57.333,42.524C57.734,42.048 58.136,41.572 58.537,41.104C58.646,40.979 58.755,40.846 58.863,40.72C58.981,40.587 59.114,40.528 58.805,40.729C58.596,40.787 58.387,40.846 58.169,40.896C58.194,40.896 58.22,40.896 58.253,40.896C58.044,40.837 57.835,40.779 57.617,40.729C57.316,40.537 57.425,40.562 57.525,40.687C57.609,40.795 57.709,40.904 57.801,41.013C58.128,41.397 58.445,41.773 58.771,42.157C59.842,43.418 60.912,44.679 61.983,45.948C64.391,48.796 66.808,51.644 69.217,54.491C69.769,55.143 70.321,55.794 70.873,56.445C71.308,56.963 72.194,56.896 72.646,56.445C73.122,55.919 73.055,55.176 72.612,54.658Z" fill="#D8D692"/>
</svg>
