<svg width="198" height="166" viewBox="0 0 198 166" fill="none" xmlns="http://www.w3.org/2000/svg" xmlns:xlink="http://www.w3.org/1999/xlink">
<path d="M43.614,115.513L37.56,166L0.143,166L1.383,157.628C1.834,152.121 3.214,146.833 5.383,141.903C9.06,133.684 15.135,126.994 22.592,122.402L22.592,122.389C22.974,122.145 23.358,121.938 23.74,121.705C29.734,118.251 36.517,116.093 43.614,115.513Z" fill="#186BE7"/>
<path d="M197.651,166L160.128,166L153.68,112.139C157.939,112.488 162.1,113.404 166.03,114.84C177.384,118.945 186.927,127.272 191.913,138.552C194.082,143.447 195.45,148.746 195.913,154.255L197.651,166Z" fill="#186BE7"/>
<path d="M172.521,118.228L166.124,166L28.32,166L22.592,122.402L22.592,122.389C22.974,122.145 23.359,121.937 23.74,121.705C32.386,116.606 52.014,110.741 66.036,106.936C75.928,104.254 86.133,102.923 96.387,102.97L107.289,103.022C114.901,103.056 122.485,103.854 129.94,105.399C142.004,107.897 159.903,111.906 166.027,114.84C168.372,115.941 170.54,117.079 172.521,118.228Z" fill="#FF7029"/>
<path d="M130.768,56.416C130.768,56.416 133.858,64.889 120.04,69.813L121.002,139.069L80.014,120.697L83.651,80.663L99.376,73.905L103.125,67.132C103.125,67.132 108.569,60.109 109.227,59.418C109.883,58.725 115.707,53.602 115.707,53.602L128.223,57.379L130.768,56.416Z" fill="#FAB9C9"/>
<path d="M112.983,76.92C115.554,66.732 108.911,67.111 101.457,70.154L99.381,73.905L84.789,80.175L83.244,85.606L81.802,102.943C81.801,102.943 107.73,97.744 112.983,76.92Z" fill="#1B1E28"/>
<path d="M72.299,50.769C72.299,50.769 60.928,45.615 64.922,33.924C68.915,22.232 69.014,22.233 68.185,16.722C67.355,11.211 69.475,-2.507 85.57,1.337C101.667,5.181 103.846,5.596 112.061,2.165C120.276,-1.265 131.61,6.221 129.842,24.415C128.34,39.879 125.062,35.602 128.178,43.884C131.294,52.166 129.461,54.235 124,55.541C111.346,58.565 105.201,52.535 105.201,52.251C105.201,51.966 102.705,45.624 101.145,44.793C99.586,43.961 85.341,40.011 85.03,40.426C84.718,40.842 80.016,47.365 80.016,47.365L72.299,50.769Z" fill="#1B1E28"/>
<path d="M65.802,52.485C70.423,52.736 75.11,52.51 79.74,52.467C80.102,52.464 80.103,51.9 79.74,51.904C75.11,51.94 70.42,51.791 65.802,52.122C65.569,52.137 65.567,52.474 65.802,52.485Z" fill="#1B1E28"/>
<path d="M72.325,34.809L72.325,70.52C72.325,70.52 71.209,87.476 83.938,88.156C96.667,88.836 104.342,88.205 108.473,83.686C112.602,79.167 116.489,71.102 113.572,49.676C110.658,28.249 107.598,24.607 107.598,24.607L91.711,19.796L76.696,22.42L72.325,34.809Z" fill="#FAB9C9"/>
<path d="M72.305,72.032C72.383,76.201 73.546,87.601 83.938,88.156C96.667,88.835 104.342,88.205 108.473,83.686C111.547,80.322 114.483,74.988 114.583,63.645C114.564,59.957 114.258,55.666 113.573,50.628C113.174,47.686 112.818,45.013 112.501,42.575C109.955,27.415 107.599,24.607 107.599,24.607L91.711,19.797L76.697,22.42L72.527,34.238L72.325,35.761L72.325,36.125C72.325,36.125 73.09,34.158 76.261,34.267C79.432,34.376 79.103,32.882 82.82,28.764C86.538,24.647 88.359,29.857 91.296,32.299C94.233,34.74 98.38,31.497 103.189,31.351C108,31.205 107.051,36.963 106.142,38.53C105.23,40.097 104.392,42.32 107.309,43.377C110.223,44.433 111.242,44.906 111.608,52.048C111.971,59.19 110.041,64.256 106.36,66.66C102.68,69.065 94.918,68.519 89.525,64.401C84.132,60.284 78.282,64.238 75.46,65.458C73.969,66.101 72.523,65.268 72.326,65.146L72.326,70.519L72.326,71.47C72.325,71.471 72.312,71.678 72.305,72.032Z" fill="#E5A0B1"/>
<path d="M83.32,44.059C82.742,48.644 82.054,53.821 82.662,58.41C82.885,60.096 83.88,61.4 86.157,60.926C86.738,60.804 86.491,60.108 85.91,60.203C82.333,60.788 83.564,53.374 83.598,52.072C83.671,49.401 83.8,46.731 83.771,44.059C83.767,43.821 83.348,43.83 83.32,44.059Z" fill="#EAAABA"/>
<path d="M90.784,56.097C91.811,56.097 92.645,55.264 92.645,54.236C92.645,53.208 91.811,52.375 90.784,52.375C89.756,52.375 88.923,53.208 88.923,54.236C88.923,55.264 89.756,56.097 90.784,56.097Z" fill="#1B1E28"/>
<path d="M76.655,56.097C77.683,56.097 78.516,55.264 78.516,54.236C78.516,53.208 77.683,52.375 76.655,52.375C75.627,52.375 74.794,53.208 74.794,54.236C74.794,55.264 75.627,56.097 76.655,56.097Z" fill="#1B1E28"/>
<path d="M73.227,47.753C74.319,47.313 75.224,46.696 76.432,46.548C77.767,46.381 78.838,46.769 80.073,47.188C80.586,47.361 80.787,46.655 80.416,46.378C78.44,44.902 74.322,45.142 72.876,47.295C72.732,47.508 72.975,47.855 73.227,47.753Z" fill="#1B1E28"/>
<path d="M89.162,47.175C90.309,46.731 91.212,46.235 92.496,46.293C93.78,46.353 94.825,46.884 96.008,47.302C96.523,47.485 96.715,46.771 96.349,46.492C94.481,45.065 90.33,44.496 88.81,46.718C88.662,46.931 88.91,47.273 89.162,47.175Z" fill="#1B1E28"/>
<path d="M100.371,57.791C101.031,59.414 99.777,61.455 97.57,62.353C95.363,63.251 93.04,62.662 92.381,61.04C91.721,59.42 92.976,57.378 95.183,56.48C97.389,55.584 99.713,56.17 100.371,57.791Z" fill="#EAAABA"/>
<path d="M75.279,56.837C74.271,56.385 73.229,56.248 72.321,56.382L72.321,62.592C72.422,62.645 72.524,62.697 72.63,62.744C74.848,63.74 77.242,63.225 77.973,61.593C78.704,59.964 77.498,57.835 75.279,56.837Z" fill="#EAAABA"/>
<path d="M81.814,51.147C82.198,55.123 80.017,58.979 76.001,60.037C71.475,61.23 66.87,58.121 66.171,53.548C65.515,49.248 68.497,45.221 72.79,44.564C77.242,43.885 80.942,46.938 81.821,51.206C81.88,51.483 82.3,51.365 82.242,51.091C81.326,46.643 77.368,43.354 72.695,44.092C68.19,44.804 65.033,49.098 65.694,53.61C66.354,58.114 70.701,61.303 75.188,60.644C79.867,59.958 82.688,55.683 82.252,51.146C82.225,50.871 81.788,50.869 81.814,51.147Z" fill="#1B1E28"/>
<path d="M101.865,52.56C101.633,56.858 98.409,60.494 93.93,60.494C89.629,60.494 85.994,56.858 85.994,52.56C85.994,48.555 89.131,45.125 93.082,44.714C97.872,44.218 101.614,47.883 101.865,52.56C101.879,52.839 102.317,52.841 102.302,52.56C102.056,48.012 98.677,44.188 93.93,44.188C89.387,44.188 85.536,48.001 85.558,52.56C85.579,56.956 89.088,60.675 93.486,60.906C98.404,61.164 102.047,57.282 102.302,52.56C102.317,52.278 101.88,52.278 101.865,52.56Z" fill="#1B1E28"/>
<path d="M81.874,52.078C83.075,52.291 84.515,52.302 85.723,52.133C85.892,52.109 85.892,51.817 85.723,51.793C84.515,51.626 83.077,51.635 81.874,51.848C81.758,51.867 81.758,52.057 81.874,52.078Z" fill="#1B1E28"/>
<path d="M101.73,52.226C106.353,52.477 111.039,52.25 115.669,52.208C116.03,52.205 116.032,51.641 115.669,51.643C111.039,51.681 106.349,51.532 101.73,51.861C101.497,51.878 101.496,52.213 101.73,52.226Z" fill="#1B1E28"/>
<path d="M130.739,56.416C127.283,47.609 114.047,53.602 114.047,53.602L112.973,62.216L119.496,59.726C119.73,60.31 125.811,60.427 125.811,60.427L130.739,56.416Z" fill="#FAB9C9"/>
<path d="M119.186,54.025C122.814,53.469 126.318,56.648 125.906,60.356C125.842,60.939 124.921,60.945 124.983,60.356C125.322,57.308 122.524,54.44 119.43,54.913C118.85,55.003 118.6,54.115 119.186,54.025Z" fill="#E5A0B1"/>
<path d="M124.208,56.731C122.687,57.395 121.549,58.622 121.053,60.213C120.879,60.779 119.988,60.537 120.166,59.968C120.725,58.166 122.007,56.693 123.742,55.935C124.282,55.7 124.752,56.494 124.208,56.731Z" fill="#E5A0B1"/>
<path d="M77.627,4.89C72.305,8.488 71.215,15.33 73.673,21.01C73.752,21.195 74.02,21.035 73.942,20.853C71.556,15.34 72.606,8.659 77.785,5.159C77.951,5.047 77.794,4.776 77.627,4.89Z" fill="#FFFFFF"/>
<path d="M68.366,43.311C68.812,44.211 69.22,45.121 69.769,45.963C69.879,46.131 70.15,45.975 70.039,45.806C69.488,44.963 69.081,44.053 68.636,43.155C68.547,42.975 68.277,43.133 68.366,43.311Z" fill="#FFFFFF"/>
<path d="M107.753,33.356C107.753,33.703 107.753,34.049 107.753,34.396C107.753,34.596 108.066,34.596 108.066,34.396C108.066,34.049 108.066,33.703 108.066,33.356C108.066,33.155 107.753,33.155 107.753,33.356Z" fill="#FFFFFF"/>
<path d="M107.352,37.853C107.258,37.98 107.238,38.141 107.144,38.269C107.024,38.431 107.295,38.585 107.414,38.426C107.509,38.298 107.529,38.138 107.622,38.01C107.741,37.848 107.47,37.692 107.352,37.853Z" fill="#FFFFFF"/>
<path d="M125.418,37.203C125.05,40.707 125.12,43.51 126.463,46.81C126.539,46.994 126.84,46.914 126.764,46.728C125.444,43.483 125.369,40.637 125.73,37.203C125.752,37.003 125.438,37.005 125.418,37.203Z" fill="#FFFFFF"/>
<path d="M83.938,88.156C96.666,88.836 104.342,88.205 108.472,83.686C112.602,79.167 116.489,71.102 113.572,49.676C110.658,28.249 110.062,20.619 110.062,20.619L98.989,14.614L74.799,16.097L72.325,34.809L72.325,35.172C72.325,35.172 73.09,33.206 76.261,33.314C79.432,33.424 79.103,31.929 82.819,27.812C86.537,23.696 88.359,28.905 91.295,31.347C94.232,33.788 98.379,30.545 103.188,30.399C107.999,30.253 107.051,36.01 106.141,37.578C105.229,39.145 104.391,41.367 107.308,42.424C110.222,43.481 111.241,43.954 111.608,51.095C111.971,58.238 110.04,63.304 106.359,65.708C102.679,68.113 94.918,67.567 89.524,63.449C84.131,59.332 78.281,63.286 75.46,64.506C73.969,65.148 72.523,64.315 72.325,64.194L72.325,70.519C72.325,70.52 71.209,87.476 83.938,88.156Z" fill="#1B1E28"/>
<path d="M70.834,24.207C70.948,27.481 68.951,30.14 67.716,33.036C66.842,35.082 66.718,37.301 66.78,39.49C66.785,39.691 67.097,39.692 67.091,39.49C66.997,36.16 67.758,33.558 69.212,30.589C70.26,28.45 71.23,26.645 71.146,24.207C71.139,24.007 70.827,24.006 70.834,24.207Z" fill="#FFFFFF"/>
<path d="M107.659,9.178C111.334,9.74 115.09,8.964 118.709,9.992C125.749,11.988 124.109,22.441 121.914,27.352C121.832,27.534 122.102,27.692 122.183,27.509C124.374,22.605 125.258,16.238 121.831,11.667C118.812,7.642 111.935,9.518 107.743,8.878C107.547,8.847 107.461,9.148 107.659,9.178Z" fill="#FFFFFF"/>
<path d="M89.864,25.662C90.179,35.075 101.978,24.618 106.027,29.308C106.158,29.46 106.378,29.239 106.247,29.087C102.113,24.296 90.472,34.497 90.177,25.662C90.171,25.462 89.859,25.461 89.864,25.662Z" fill="#FFFFFF"/>
<path d="M83.473,88.383C88.697,88.417 94.001,89.05 99.201,88.289C104.8,87.469 108.608,85.292 111.524,80.429C111.627,80.256 111.357,80.1 111.254,80.272C108.054,85.606 103.609,87.573 97.554,88.156C92.875,88.605 88.157,88.101 83.473,88.07C83.273,88.069 83.273,88.381 83.473,88.383Z" fill="#FFFFFF"/>
<path d="M82.723,68.139C84.034,71.062 89.443,69.885 89.448,66.694C89.448,66.353 88.981,66.227 88.809,66.521C88.199,67.56 87.8,68.537 86.498,68.872C85.135,69.224 84.14,68.503 83.093,67.768C82.847,67.596 82.625,67.92 82.723,68.139Z" fill="#FFFFFF"/>
<path d="M81.083,111.442C92.422,124.721 104.791,122.989 117.833,111.442L117.834,165.999L81.084,165.999L81.084,111.442L81.083,111.442Z" fill="#E3EEF1"/>
<path d="M82.078,97.661L56.308,106.506C68.18,126.877 74.462,146.649 74.408,165.745L85.926,165.745C91.827,145.142 89.809,122.234 82.078,97.661Z" fill="#186BE7"/>
<path d="M120.135,97.661L145.906,106.506C134.032,126.877 127.751,146.649 127.805,165.745L116.287,165.745C110.387,145.142 112.405,122.234 120.135,97.661Z" fill="#186BE7"/>
</svg>
