<svg width="460" height="180" viewBox="0 0 460 180" fill="none" xmlns="http://www.w3.org/2000/svg" xmlns:xlink="http://www.w3.org/1999/xlink">
<circle cx="240" cy="90" r="72" fill="#E0F7FA"/>
<path d="M257.414,79.414C258.195,78.633 258.195,77.367 257.414,76.586C256.633,75.805 255.367,75.805 254.586,76.586L257.414,79.414ZM234,100L232.586,101.414C233.367,102.195 234.633,102.195 235.414,101.414L234,100ZM225.414,88.586C224.633,87.805 223.367,87.805 222.586,88.586C221.805,89.367 221.805,90.633 222.586,91.414L225.414,88.586ZM254.586,76.586L232.586,98.586L235.414,101.414L257.414,79.414L254.586,76.586ZM235.414,98.586L225.414,88.586L222.586,91.414L232.586,101.414L235.414,98.586Z" fill="#43A047"/>
</svg>
