<svg width="34" height="38" viewBox="0 0 34 38" fill="none" xmlns="http://www.w3.org/2000/svg" xmlns:xlink="http://www.w3.org/1999/xlink">
<path d="M19.565,16.816C19.565,18.682 18.245,19.905 16.956,19.905L16.956,22.905C20.206,22.905 22.565,20.019 22.565,16.816L19.565,16.816ZM16.956,19.905C15.667,19.905 14.348,18.682 14.348,16.816L11.348,16.816C11.348,20.019 13.707,22.905 16.956,22.905L16.956,19.905ZM14.348,16.816C14.348,14.95 15.667,13.727 16.956,13.727L16.956,10.727C13.707,10.727 11.348,13.613 11.348,16.816L14.348,16.816ZM16.956,13.727C18.245,13.727 19.565,14.95 19.565,16.816L22.565,16.816C22.565,13.613 20.206,10.727 16.956,10.727L16.956,13.727Z" fill="#7D848D"/>
<path d="M27.783,16.646C27.783,19.952 26.052,23.887 23.657,27.055C22.473,28.62 21.177,29.929 19.945,30.832C18.676,31.763 17.644,32.141 16.956,32.141L16.956,35.141C18.58,35.141 20.244,34.334 21.72,33.251C23.233,32.141 24.729,30.61 26.049,28.865C28.661,25.412 30.783,20.849 30.783,16.646L27.783,16.646ZM16.956,32.141C16.269,32.141 15.237,31.763 13.968,30.832C12.736,29.929 11.44,28.62 10.256,27.055C7.861,23.887 6.13,19.952 6.13,16.646L3.13,16.646C3.13,20.849 5.252,25.412 7.864,28.865C9.184,30.61 10.68,32.141 12.193,33.251C13.669,34.334 15.333,35.141 16.956,35.141L16.956,32.141ZM6.13,16.646C6.13,9.824 11.112,4.55 16.956,4.55L16.956,1.55C9.185,1.55 3.13,8.45 3.13,16.646L6.13,16.646ZM16.956,4.55C22.8,4.55 27.783,9.824 27.783,16.646L30.783,16.646C30.783,8.45 24.727,1.55 16.956,1.55L16.956,4.55Z" fill="#7D848D"/>
</svg>
