<svg width="32" height="38" viewBox="0 0 32 38" fill="none" xmlns="http://www.w3.org/2000/svg" xmlns:xlink="http://www.w3.org/1999/xlink">
<path d="M18.13,16.816C18.13,18.682 16.811,19.905 15.522,19.905L15.522,22.905C18.771,22.905 21.13,20.019 21.13,16.816L18.13,16.816ZM15.522,19.905C14.233,19.905 12.913,18.682 12.913,16.816L9.913,16.816C9.913,20.019 12.273,22.905 15.522,22.905L15.522,19.905ZM12.913,16.816C12.913,14.95 14.233,13.727 15.522,13.727L15.522,10.727C12.273,10.727 9.913,13.613 9.913,16.816L12.913,16.816ZM15.522,13.727C16.811,13.727 18.13,14.95 18.13,16.816L21.13,16.816C21.13,13.613 18.771,10.727 15.522,10.727L15.522,13.727Z" fill="#7D848D"/>
<path d="M26.348,16.646C26.348,19.952 24.618,23.887 22.222,27.055C21.038,28.62 19.742,29.929 18.511,30.832C17.242,31.763 16.209,32.141 15.522,32.141L15.522,35.141C17.146,35.141 18.81,34.334 20.285,33.251C21.798,32.141 23.295,30.61 24.615,28.865C27.226,25.412 29.348,20.849 29.348,16.646L26.348,16.646ZM15.522,32.141C14.834,32.141 13.802,31.763 12.533,30.832C11.302,29.929 10.005,28.62 8.822,27.055C6.426,23.887 4.696,19.952 4.696,16.646L1.696,16.646C1.696,20.849 3.817,25.412 6.429,28.865C7.749,30.61 9.246,32.141 10.759,33.251C12.234,34.334 13.898,35.141 15.522,35.141L15.522,32.141ZM4.696,16.646C4.696,9.824 9.678,4.55 15.522,4.55L15.522,1.55C7.751,1.55 1.696,8.45 1.696,16.646L4.696,16.646ZM15.522,4.55C21.366,4.55 26.348,9.824 26.348,16.646L29.348,16.646C29.348,8.45 23.293,1.55 15.522,1.55L15.522,4.55Z" fill="#7D848D"/>
</svg>
