<svg width="42" height="40" viewBox="0 0 42 40" fill="none" xmlns="http://www.w3.org/2000/svg" xmlns:xlink="http://www.w3.org/1999/xlink">
<path d="M24.877,17.716C24.877,19.666 23.099,21.425 20.675,21.425L20.675,23.625C24.107,23.625 27.077,21.078 27.077,17.716L24.877,17.716ZM20.675,21.425C18.251,21.425 16.474,19.666 16.474,17.716L14.274,17.716C14.274,21.078 17.243,23.625 20.675,23.625L20.675,21.425ZM16.474,17.716C16.474,15.767 18.251,14.008 20.675,14.008L20.675,11.808C17.243,11.808 14.274,14.355 14.274,17.716L16.474,17.716ZM20.675,14.008C23.099,14.008 24.877,15.767 24.877,17.716L27.077,17.716C27.077,14.355 24.107,11.808 20.675,11.808L20.675,14.008Z" fill="#FFFFFF"/>
<path d="M35.481,17.538C35.481,21.068 33.21,25.262 30.06,28.644C28.504,30.314 26.782,31.733 25.114,32.726C23.427,33.731 21.887,34.248 20.675,34.248L20.675,36.448C22.446,36.448 24.386,35.721 26.24,34.616C28.113,33.5 29.994,31.942 31.67,30.143C34.981,26.588 37.681,21.877 37.681,17.538L35.481,17.538ZM20.675,34.248C19.464,34.248 17.924,33.731 16.237,32.726C14.569,31.733 12.847,30.314 11.291,28.644C8.141,25.262 5.871,21.068 5.871,17.538L3.671,17.538C3.671,21.877 6.37,26.588 9.681,30.143C11.357,31.942 13.238,33.5 15.111,34.616C16.965,35.721 18.905,36.448 20.675,36.448L20.675,34.248ZM5.871,17.538C5.871,10.388 12.382,4.391 20.675,4.391L20.675,2.191C11.401,2.191 3.671,8.951 3.671,17.538L5.871,17.538ZM20.675,4.391C28.969,4.391 35.481,10.388 35.481,17.538L37.681,17.538C37.681,8.951 29.95,2.191 20.675,2.191L20.675,4.391Z" fill="#FFFFFF"/>
</svg>
