<svg width="44" height="40" viewBox="0 0 44 40" fill="none" xmlns="http://www.w3.org/2000/svg" xmlns:xlink="http://www.w3.org/1999/xlink">
<path d="M25.943,18.61C25.943,20.54 24.139,22.318 21.634,22.318L21.634,24.518C25.104,24.518 28.143,21.991 28.143,18.61L25.943,18.61ZM21.634,22.318C19.129,22.318 17.326,20.54 17.326,18.61L15.126,18.61C15.126,21.991 18.165,24.518 21.634,24.518L21.634,22.318ZM17.326,18.61C17.326,16.68 19.129,14.901 21.634,14.901L21.634,12.701C18.165,12.701 15.126,15.229 15.126,18.61L17.326,18.61ZM21.634,14.901C24.139,14.901 25.943,16.68 25.943,18.61L28.143,18.61C28.143,15.229 25.104,12.701 21.634,12.701L21.634,14.901Z" fill="#FFFFFF"/>
<path d="M36.76,18.432C36.76,21.953 34.447,26.145 31.231,29.529C29.644,31.2 27.886,32.619 26.182,33.615C24.459,34.621 22.882,35.141 21.634,35.141L21.634,37.341C23.429,37.341 25.401,36.618 27.291,35.514C29.2,34.4 31.118,32.843 32.826,31.045C36.202,27.492 38.96,22.779 38.96,18.432L36.76,18.432ZM21.634,35.141C20.387,35.141 18.809,34.621 17.087,33.615C15.383,32.619 13.625,31.2 12.037,29.529C8.821,26.145 6.509,21.953 6.509,18.432L4.309,18.432C4.309,22.779 7.067,27.492 10.442,31.045C12.151,32.843 14.069,34.4 15.977,35.514C17.868,36.618 19.839,37.341 21.634,37.341L21.634,35.141ZM6.509,18.432C6.509,11.3 13.142,5.284 21.634,5.284L21.634,3.084C12.204,3.084 4.309,9.825 4.309,18.432L6.509,18.432ZM21.634,5.284C30.127,5.284 36.76,11.3 36.76,18.432L38.96,18.432C38.96,9.825 31.064,3.084 21.634,3.084L21.634,5.284Z" fill="#FFFFFF"/>
</svg>
