<svg width="42" height="40" viewBox="0 0 42 40" fill="none" xmlns="http://www.w3.org/2000/svg" xmlns:xlink="http://www.w3.org/1999/xlink">
<path d="M24.877,17.929C24.877,19.879 23.099,21.638 20.675,21.638L20.675,23.838C24.107,23.838 27.077,21.291 27.077,17.929L24.877,17.929ZM20.675,21.638C18.251,21.638 16.474,19.879 16.474,17.929L14.274,17.929C14.274,21.291 17.243,23.838 20.675,23.838L20.675,21.638ZM16.474,17.929C16.474,15.98 18.251,14.221 20.675,14.221L20.675,12.021C17.243,12.021 14.274,14.568 14.274,17.929L16.474,17.929ZM20.675,14.221C23.099,14.221 24.877,15.98 24.877,17.929L27.077,17.929C27.077,14.568 24.107,12.021 20.675,12.021L20.675,14.221Z" fill="#FFFFFF"/>
<path d="M35.481,17.751C35.481,21.281 33.21,25.475 30.06,28.857C28.504,30.527 26.782,31.945 25.114,32.939C23.427,33.944 21.887,34.46 20.675,34.46L20.675,36.66C22.446,36.66 24.386,35.934 26.24,34.829C28.113,33.713 29.994,32.155 31.67,30.356C34.981,26.801 37.681,22.09 37.681,17.751L35.481,17.751ZM20.675,34.46C19.464,34.46 17.924,33.944 16.237,32.939C14.569,31.945 12.847,30.527 11.291,28.857C8.141,25.475 5.871,21.281 5.871,17.751L3.671,17.751C3.671,22.09 6.37,26.801 9.681,30.356C11.357,32.155 13.238,33.713 15.111,34.829C16.965,35.934 18.905,36.66 20.675,36.66L20.675,34.46ZM5.871,17.751C5.871,10.601 12.382,4.604 20.675,4.604L20.675,2.404C11.401,2.404 3.671,9.164 3.671,17.751L5.871,17.751ZM20.675,4.604C28.969,4.604 35.481,10.601 35.481,17.751L37.681,17.751C37.681,9.164 29.95,2.404 20.675,2.404L20.675,4.604Z" fill="#FFFFFF"/>
</svg>
