<svg width="44" height="40" viewBox="0 0 44 40" fill="none" xmlns="http://www.w3.org/2000/svg" xmlns:xlink="http://www.w3.org/1999/xlink">
<path d="M25.943,17.504C25.943,19.434 24.139,21.212 21.634,21.212L21.634,23.412C25.104,23.412 28.143,20.885 28.143,17.504L25.943,17.504ZM21.634,21.212C19.129,21.212 17.326,19.434 17.326,17.504L15.126,17.504C15.126,20.885 18.165,23.412 21.634,23.412L21.634,21.212ZM17.326,17.504C17.326,15.574 19.129,13.795 21.634,13.795L21.634,11.595C18.165,11.595 15.126,14.123 15.126,17.504L17.326,17.504ZM21.634,13.795C24.139,13.795 25.943,15.574 25.943,17.504L28.143,17.504C28.143,14.123 25.104,11.595 21.634,11.595L21.634,13.795Z" fill="#FFFFFF"/>
<path d="M36.76,17.326C36.76,20.847 34.447,25.039 31.231,28.423C29.644,30.094 27.886,31.514 26.182,32.509C24.459,33.515 22.882,34.035 21.634,34.035L21.634,36.235C23.429,36.235 25.401,35.513 27.291,34.409C29.2,33.294 31.118,31.737 32.826,29.939C36.202,26.386 38.96,21.673 38.96,17.326L36.76,17.326ZM21.634,34.035C20.387,34.035 18.809,33.515 17.087,32.509C15.383,31.514 13.625,30.094 12.037,28.423C8.821,25.039 6.509,20.847 6.509,17.326L4.309,17.326C4.309,21.673 7.067,26.386 10.442,29.939C12.151,31.737 14.069,33.294 15.977,34.409C17.868,35.513 19.839,36.235 21.634,36.235L21.634,34.035ZM6.509,17.326C6.509,10.194 13.142,4.178 21.634,4.178L21.634,1.978C12.204,1.978 4.309,8.719 4.309,17.326L6.509,17.326ZM21.634,4.178C30.127,4.178 36.76,10.194 36.76,17.326L38.96,17.326C38.96,8.719 31.064,1.978 21.634,1.978L21.634,4.178Z" fill="#FFFFFF"/>
</svg>
