<svg width="44" height="40" viewBox="0 0 44 40" fill="none" xmlns="http://www.w3.org/2000/svg" xmlns:xlink="http://www.w3.org/1999/xlink">
<path d="M25.943,17.716C25.943,19.647 24.139,21.425 21.634,21.425L21.634,23.625C25.104,23.625 28.143,21.098 28.143,17.716L25.943,17.716ZM21.634,21.425C19.129,21.425 17.326,19.647 17.326,17.716L15.126,17.716C15.126,21.098 18.165,23.625 21.634,23.625L21.634,21.425ZM17.326,17.716C17.326,15.786 19.129,14.008 21.634,14.008L21.634,11.808C18.165,11.808 15.126,14.335 15.126,17.716L17.326,17.716ZM21.634,14.008C24.139,14.008 25.943,15.786 25.943,17.716L28.143,17.716C28.143,14.335 25.104,11.808 21.634,11.808L21.634,14.008Z" fill="#FFFFFF"/>
<path d="M36.76,17.538C36.76,21.06 34.447,25.251 31.231,28.636C29.644,30.307 27.886,31.726 26.182,32.721C24.459,33.727 22.882,34.248 21.634,34.248L21.634,36.448C23.429,36.448 25.401,35.725 27.291,34.621C29.2,33.507 31.118,31.949 32.826,30.151C36.202,26.598 38.96,21.885 38.96,17.538L36.76,17.538ZM21.634,34.248C20.387,34.248 18.809,33.727 17.087,32.721C15.383,31.726 13.625,30.307 12.037,28.636C8.821,25.251 6.509,21.06 6.509,17.538L4.309,17.538C4.309,21.885 7.067,26.598 10.442,30.151C12.151,31.949 14.069,33.507 15.977,34.621C17.868,35.725 19.839,36.448 21.634,36.448L21.634,34.248ZM6.509,17.538C6.509,10.407 13.142,4.391 21.634,4.391L21.634,2.191C12.204,2.191 4.309,8.932 4.309,17.538L6.509,17.538ZM21.634,4.391C30.127,4.391 36.76,10.407 36.76,17.538L38.96,17.538C38.96,8.932 31.064,2.191 21.634,2.191L21.634,4.391Z" fill="#FFFFFF"/>
</svg>
