<svg width="44" height="38" viewBox="0 0 44 38" fill="none" xmlns="http://www.w3.org/2000/svg" xmlns:xlink="http://www.w3.org/1999/xlink">
<path d="M25.943,16.823C25.943,18.753 24.139,20.531 21.634,20.531L21.634,22.731C25.104,22.731 28.143,20.204 28.143,16.823L25.943,16.823ZM21.634,20.531C19.129,20.531 17.326,18.753 17.326,16.823L15.126,16.823C15.126,20.204 18.165,22.731 21.634,22.731L21.634,20.531ZM17.326,16.823C17.326,14.893 19.129,13.114 21.634,13.114L21.634,10.914C18.165,10.914 15.126,13.441 15.126,16.823L17.326,16.823ZM21.634,13.114C24.139,13.114 25.943,14.893 25.943,16.823L28.143,16.823C28.143,13.441 25.104,10.914 21.634,10.914L21.634,13.114Z" fill="#FFFFFF"/>
<path d="M36.76,16.644C36.76,20.166 34.447,24.358 31.231,27.742C29.644,29.413 27.886,30.832 26.182,31.828C24.459,32.834 22.882,33.354 21.634,33.354L21.634,35.554C23.429,35.554 25.401,34.831 27.291,33.727C29.2,32.613 31.118,31.056 32.826,29.258C36.202,25.705 38.96,20.992 38.96,16.644L36.76,16.644ZM21.634,33.354C20.387,33.354 18.809,32.834 17.087,31.828C15.383,30.832 13.625,29.413 12.037,27.742C8.821,24.358 6.509,20.166 6.509,16.644L4.309,16.644C4.309,20.992 7.067,25.705 10.442,29.258C12.151,31.056 14.069,32.613 15.977,33.727C17.868,34.831 19.839,35.554 21.634,35.554L21.634,33.354ZM6.509,16.644C6.509,9.513 13.142,3.497 21.634,3.497L21.634,1.297C12.204,1.297 4.309,8.038 4.309,16.644L6.509,16.644ZM21.634,3.497C30.127,3.497 36.76,9.513 36.76,16.644L38.96,16.644C38.96,8.038 31.064,1.297 21.634,1.297L21.634,3.497Z" fill="#FFFFFF"/>
</svg>
