<svg width="100" height="88" viewBox="0 0 100 88" fill="none" xmlns="http://www.w3.org/2000/svg" xmlns:xlink="http://www.w3.org/1999/xlink">
<path d="M100,44C100,68.301 77.419,88 49.564,88C21.709,88 -0.872,68.301 -0.872,44C-0.872,19.699 21.709,0 49.564,0C77.419,0 100,19.699 100,44Z" fill="#F7F7F9"/>
<path d="M34.234,45.831L32.747,45.637L32.747,45.637L34.234,45.831ZM35.26,37.95L36.747,38.144L35.26,37.95ZM32.25,49.744L31.177,48.697L31.177,48.697L32.25,49.744ZM66.381,45.637C66.274,44.815 65.521,44.236 64.7,44.343C63.878,44.45 63.299,45.203 63.406,46.024L66.381,45.637ZM66.878,49.744L65.804,50.792L65.804,50.792L66.878,49.744ZM44.36,28.747L44.789,30.185C45.425,29.995 45.86,29.41 45.86,28.747L44.36,28.747ZM52.445,26.636C53.026,27.227 53.976,27.234 54.566,26.653C55.156,26.072 55.164,25.122 54.583,24.532L52.445,26.636ZM57.82,60.592C58.147,59.831 57.795,58.949 57.034,58.622C56.272,58.295 55.39,58.647 55.063,59.408L57.82,60.592ZM44.065,59.408C43.738,58.647 42.855,58.295 42.094,58.622C41.333,58.949 40.981,59.831 41.308,60.592L44.065,59.408ZM62.808,54.5L36.32,54.5L36.32,57.5L62.808,57.5L62.808,54.5ZM35.722,46.024L36.747,38.144L33.772,37.757L32.747,45.637L35.722,46.024ZM33.324,50.792C34.637,49.446 35.491,47.802 35.722,46.024L32.747,45.637C32.609,46.698 32.09,47.76 31.177,48.697L33.324,50.792ZM63.406,46.024C63.637,47.802 64.491,49.446 65.804,50.792L67.951,48.697C67.037,47.76 66.519,46.698 66.381,45.637L63.406,46.024ZM36.32,54.5C34.648,54.5 33.516,53.771 33.027,53.021C32.591,52.35 32.571,51.563 33.324,50.792L31.177,48.697C29.415,50.503 29.334,52.844 30.512,54.657C31.64,56.389 33.8,57.5 36.32,57.5L36.32,54.5ZM62.808,57.5C65.328,57.5 67.488,56.389 68.615,54.657C69.794,52.844 69.713,50.503 67.951,48.697L65.804,50.792C66.557,51.563 66.537,52.35 66.101,53.021C65.612,53.771 64.48,54.5 62.808,54.5L62.808,57.5ZM45.86,28.747L45.86,28.54L42.86,28.54L42.86,28.747L45.86,28.747ZM36.747,38.144C37.2,34.664 40.245,31.542 44.789,30.185L43.931,27.31C38.652,28.887 34.425,32.739 33.772,37.757L36.747,38.144ZM49.564,22.5C46.06,22.5 42.86,25.018 42.86,28.54L45.86,28.54C45.86,27.047 47.319,25.5 49.564,25.5L49.564,22.5ZM49.564,25.5C50.759,25.5 51.784,25.965 52.445,26.636L54.583,24.532C53.335,23.264 51.529,22.5 49.564,22.5L49.564,25.5ZM55.063,59.408C54.343,61.086 52.259,62.5 49.564,62.5L49.564,65.5C53.219,65.5 56.538,63.575 57.82,60.592L55.063,59.408ZM49.564,62.5C46.869,62.5 44.785,61.086 44.065,59.408L41.308,60.592C42.59,63.575 45.908,65.5 49.564,65.5L49.564,62.5Z" fill="#1B1E28"/>
</svg>
