<svg width="28" height="38" viewBox="0 0 28 38" fill="none" xmlns="http://www.w3.org/2000/svg" xmlns:xlink="http://www.w3.org/1999/xlink">
<path d="M10.575,27.544L9.457,26.544L10.575,27.544ZM4.719,34.084L3.601,33.084L4.719,34.084ZM7.229,3.346L19.881,3.346L19.881,0.346L7.229,0.346L7.229,3.346ZM24.381,7.846L24.381,32.75L27.381,32.75L27.381,7.846L24.381,7.846ZM2.729,32.75L2.729,7.846L-0.271,7.846L-0.271,32.75L2.729,32.75ZM23.508,33.084L17.652,26.544L15.417,28.545L21.273,35.085L23.508,33.084ZM9.457,26.544L3.601,33.084L5.836,35.085L11.692,28.545L9.457,26.544ZM17.652,26.544C15.466,24.102 11.643,24.102 9.457,26.544L11.692,28.545C12.686,27.435 14.423,27.435 15.417,28.545L17.652,26.544ZM-0.271,32.75C-0.271,35.962 3.693,37.478 5.836,35.085L3.601,33.084C3.295,33.426 2.729,33.209 2.729,32.75L-0.271,32.75ZM24.381,32.75C24.381,33.209 23.814,33.426 23.508,33.084L21.273,35.085C23.416,37.478 27.381,35.962 27.381,32.75L24.381,32.75ZM19.881,3.346C22.366,3.346 24.381,5.36 24.381,7.846L27.381,7.846C27.381,3.703 24.023,0.346 19.881,0.346L19.881,3.346ZM7.229,0.346C3.086,0.346 -0.271,3.703 -0.271,7.846L2.729,7.846C2.729,5.36 4.743,3.346 7.229,3.346L7.229,0.346Z" fill="#FFFFFF"/>
</svg>
