<svg width="30" height="38" viewBox="0 0 30 38" fill="none" xmlns="http://www.w3.org/2000/svg" xmlns:xlink="http://www.w3.org/1999/xlink">
<path d="M11.509,27.993L10.392,26.992L11.509,27.993ZM5.653,34.533L4.536,33.533L5.653,34.533ZM8.163,3.794L20.815,3.794L20.815,0.794L8.163,0.794L8.163,3.794ZM25.315,8.294L25.315,33.199L28.315,33.199L28.315,8.294L25.315,8.294ZM3.663,33.199L3.663,8.294L0.663,8.294L0.663,33.199L3.663,33.199ZM24.443,33.533L18.587,26.992L16.352,28.994L22.208,35.534L24.443,33.533ZM10.392,26.992L4.536,33.533L6.771,35.534L12.627,28.994L10.392,26.992ZM18.587,26.992C16.401,24.551 12.578,24.551 10.392,26.992L12.627,28.994C13.62,27.884 15.358,27.884 16.352,28.994L18.587,26.992ZM0.663,33.199C0.663,36.411 4.628,37.927 6.771,35.534L4.536,33.533C4.229,33.875 3.663,33.658 3.663,33.199L0.663,33.199ZM25.315,33.199C25.315,33.658 24.749,33.875 24.443,33.533L22.208,35.534C24.35,37.927 28.315,36.411 28.315,33.199L25.315,33.199ZM20.815,3.794C23.3,3.794 25.315,5.809 25.315,8.294L28.315,8.294C28.315,4.152 24.957,0.794 20.815,0.794L20.815,3.794ZM8.163,0.794C4.021,0.794 0.663,4.152 0.663,8.294L3.663,8.294C3.663,5.809 5.678,3.794 8.163,3.794L8.163,0.794Z" fill="#FFFFFF"/>
</svg>
