<svg width="26" height="28" viewBox="0 0 26 28" fill="none" xmlns="http://www.w3.org/2000/svg" xmlns:xlink="http://www.w3.org/1999/xlink">
<path d="M12.337,1.657C12.644,0.6 13.983,0.6 14.291,1.657L16.542,9.397C16.68,9.869 17.074,10.189 17.519,10.189L24.806,10.189C25.801,10.189 26.215,11.612 25.41,12.265L19.515,17.048C19.155,17.34 19.004,17.858 19.142,18.331L21.393,26.071C21.701,27.127 20.618,28.006 19.813,27.353L13.918,22.57C13.558,22.278 13.07,22.278 12.71,22.57L6.815,27.353C6.01,28.006 4.927,27.127 5.234,26.071L7.486,18.331C7.624,17.858 7.473,17.34 7.113,17.048L1.218,12.265C0.413,11.612 0.827,10.189 1.822,10.189L9.108,10.189C9.553,10.189 9.948,9.869 10.085,9.397L12.337,1.657Z" fill="#FFD336"/>
</svg>
