<svg width="26" height="24" viewBox="0 0 26 24" fill="none" xmlns="http://www.w3.org/2000/svg" xmlns:xlink="http://www.w3.org/1999/xlink">
<path d="M12,4.445L11.195,5.194C11.403,5.418 11.695,5.545 12,5.545C12.306,5.545 12.597,5.418 12.805,5.194L12,4.445ZM12.893,3.486L12.088,2.737L12.088,2.737L12.893,3.486ZM11.108,3.486L11.913,2.737L11.913,2.737L11.108,3.486ZM2.182,13.075L1.377,13.825L1.377,13.825L2.182,13.075ZM10.215,21.706L11.02,20.956L11.02,20.956L10.215,21.706ZM13.785,21.706L12.98,20.956L13.785,21.706ZM21.818,13.075L21.013,12.326L21.013,12.326L21.818,13.075ZM21.818,3.486L22.623,2.737L22.623,2.737L21.818,3.486ZM2.182,3.486L1.377,2.737L2.182,3.486ZM12.805,5.194L13.698,4.235L12.088,2.737L11.195,3.695L12.805,5.194ZM10.302,4.235L11.195,5.194L12.805,3.695L11.913,2.737L10.302,4.235ZM1.377,13.825L9.41,22.455L11.02,20.956L2.987,12.326L1.377,13.825ZM14.59,22.455L22.623,13.825L21.013,12.326L12.98,20.956L14.59,22.455ZM21.013,4.235C23.085,6.461 23.085,10.1 21.013,12.326L22.623,13.825C25.481,10.754 25.481,5.807 22.623,2.737L21.013,4.235ZM22.623,2.737C19.724,-0.379 14.987,-0.379 12.088,2.737L13.698,4.235C15.728,2.055 18.983,2.055 21.013,4.235L22.623,2.737ZM2.987,4.235C5.017,2.055 8.273,2.055 10.302,4.235L11.913,2.737C9.013,-0.379 4.277,-0.379 1.377,2.737L2.987,4.235ZM9.41,22.455C10.831,23.982 13.17,23.982 14.59,22.455L12.98,20.956C12.429,21.548 11.571,21.548 11.02,20.956L9.41,22.455ZM1.377,2.737C-1.481,5.807 -1.481,10.754 1.377,13.825L2.987,12.326C0.916,10.1 0.916,6.461 2.987,4.235L1.377,2.737Z" fill="#10160A"/>
</svg>
