<svg width="34" height="24" viewBox="0 0 34 24" fill="none" xmlns="http://www.w3.org/2000/svg" xmlns:xlink="http://www.w3.org/1999/xlink">
<path d="M16.776,4.445L16.07,5.288C16.478,5.631 17.074,5.631 17.483,5.288L16.776,4.445ZM17.921,3.486L17.214,2.643L17.214,2.643L17.921,3.486ZM15.632,3.486L16.338,2.643L16.338,2.643L15.632,3.486ZM4.186,13.075L3.479,13.918L3.479,13.918L4.186,13.075ZM14.487,21.706L15.193,20.862L15.193,20.862L14.487,21.706ZM19.065,21.706L18.359,20.862L19.065,21.706ZM29.366,13.075L28.66,12.232L28.66,12.232L29.366,13.075ZM29.366,3.486L30.073,2.643L30.073,2.643L29.366,3.486ZM4.186,3.486L3.479,2.643L4.186,3.486ZM17.483,5.288L18.627,4.329L17.214,2.643L16.07,3.602L17.483,5.288ZM14.925,4.329L16.07,5.288L17.483,3.602L16.338,2.643L14.925,4.329ZM3.479,13.918L13.781,22.549L15.193,20.862L4.892,12.232L3.479,13.918ZM19.772,22.549L30.073,13.918L28.66,12.232L18.359,20.862L19.772,22.549ZM28.66,4.329C30.009,5.459 30.637,6.893 30.637,8.281C30.637,9.668 30.009,11.102 28.66,12.232L30.073,13.918C31.885,12.4 32.837,10.364 32.837,8.281C32.837,6.197 31.885,4.161 30.073,2.643L28.66,4.329ZM30.073,2.643C26.504,-0.348 20.784,-0.348 17.214,2.643L18.627,4.329C21.379,2.024 25.908,2.024 28.66,4.329L30.073,2.643ZM4.892,4.329C7.644,2.024 12.173,2.024 14.925,4.329L16.338,2.643C12.769,-0.348 7.049,-0.348 3.479,2.643L4.892,4.329ZM13.781,22.549C15.454,23.95 18.099,23.95 19.772,22.549L18.359,20.862C17.503,21.579 16.049,21.579 15.193,20.862L13.781,22.549ZM3.479,2.643C1.667,4.161 0.715,6.197 0.715,8.281C0.715,10.364 1.667,12.4 3.479,13.918L4.892,12.232C3.544,11.102 2.915,9.668 2.915,8.281C2.915,6.893 3.544,5.459 4.892,4.329L3.479,2.643Z" fill="#10160A"/>
</svg>
