<svg width="34" height="36" viewBox="0 0 34 36" fill="none" xmlns="http://www.w3.org/2000/svg" xmlns:xlink="http://www.w3.org/1999/xlink">
<path d="M13.5,5.5L18.5,5.5C18.5,4.837 18.237,4.201 17.768,3.732C17.299,3.263 16.663,3 16,3C15.337,3 14.701,3.263 14.232,3.732C13.763,4.201 13.5,4.837 13.5,5.5ZM11,5.5C11,4.174 11.527,2.902 12.464,1.964C13.402,1.027 14.674,0.5 16,0.5C17.326,0.5 18.598,1.027 19.536,1.964C20.473,2.902 21,4.174 21,5.5L31,5.5C31.332,5.5 31.649,5.632 31.884,5.866C32.118,6.101 32.25,6.418 32.25,6.75C32.25,7.082 32.118,7.399 31.884,7.634C31.649,7.868 31.332,8 31,8L29.59,8L26.577,30.095C26.373,31.592 25.633,32.965 24.495,33.959C23.356,34.952 21.896,35.5 20.385,35.5L11.615,35.5C10.104,35.5 8.644,34.952 7.505,33.959C6.367,32.965 5.627,31.592 5.422,30.095L2.41,8L1,8C0.668,8 0.351,7.868 0.116,7.634C-0.118,7.399 -0.25,7.082 -0.25,6.75C-0.25,6.418 -0.118,6.101 0.116,5.866C0.351,5.632 0.668,5.5 1,5.5L11,5.5ZM13.5,14.25C13.5,13.918 13.368,13.601 13.134,13.366C12.899,13.132 12.582,13 12.25,13C11.918,13 11.601,13.132 11.366,13.366C11.132,13.601 11,13.918 11,14.25L11,26.75C11,27.082 11.132,27.399 11.366,27.634C11.601,27.868 11.918,28 12.25,28C12.582,28 12.899,27.868 13.134,27.634C13.368,27.399 13.5,27.082 13.5,26.75L13.5,14.25ZM19.75,13C20.082,13 20.399,13.132 20.634,13.366C20.868,13.601 21,13.918 21,14.25L21,26.75C21,27.082 20.868,27.399 20.634,27.634C20.399,27.868 20.082,28 19.75,28C19.418,28 19.101,27.868 18.866,27.634C18.632,27.399 18.5,27.082 18.5,26.75L18.5,14.25C18.5,13.918 18.632,13.601 18.866,13.366C19.101,13.132 19.418,13 19.75,13ZM7.9,29.757C8.023,30.656 8.467,31.479 9.15,32.075C9.833,32.671 10.708,33 11.615,33L20.385,33C21.292,33 22.168,32.672 22.852,32.076C23.535,31.48 23.98,30.656 24.103,29.757L27.068,8L4.932,8L7.9,29.757Z" fill="#FFFFF1"/>
</svg>
