<svg width="32" height="24" viewBox="0 0 32 24" fill="none" xmlns="http://www.w3.org/2000/svg" xmlns:xlink="http://www.w3.org/1999/xlink">
<path d="M15.653,4.104C20.314,4.104 24.797,6.003 28.176,9.408C28.43,9.671 28.837,9.667 29.087,9.4L31.519,6.799C31.646,6.663 31.716,6.48 31.715,6.289C31.714,6.098 31.642,5.916 31.513,5.782C22.646,-3.227 8.658,-3.227 -0.209,5.782C-0.338,5.916 -0.41,6.098 -0.412,6.289C-0.413,6.48 -0.342,6.663 -0.215,6.799L2.217,9.4C2.467,9.668 2.874,9.671 3.129,9.408C6.507,6.003 10.991,4.104 15.653,4.104ZM15.649,12.546C18.213,12.546 20.685,13.581 22.586,15.45C22.843,15.715 23.248,15.709 23.498,15.437L25.93,12.769C26.058,12.629 26.129,12.439 26.127,12.242C26.126,12.044 26.051,11.856 25.92,11.719C20.133,5.872 11.17,5.872 5.382,11.719C5.251,11.856 5.177,12.044 5.175,12.242C5.173,12.439 5.245,12.629 5.373,12.769L7.804,15.437C8.055,15.709 8.46,15.715 8.717,15.45C10.616,13.582 13.086,12.547 15.649,12.546ZM20.539,18.72C20.542,18.913 20.47,19.1 20.34,19.236L16.119,23.749C15.995,23.881 15.826,23.956 15.65,23.956C15.474,23.956 15.305,23.881 15.182,23.749L10.959,19.236C10.829,19.1 10.757,18.913 10.761,18.719C10.765,18.526 10.844,18.342 10.98,18.212C13.676,15.797 17.624,15.797 20.32,18.212C20.456,18.342 20.535,18.526 20.539,18.72Z" clip-rule="evenodd" fill-rule="evenodd" fill="#FFFFFF"/>
</svg>
