<svg width="22" height="16" viewBox="0 0 22 16" fill="none" xmlns="http://www.w3.org/2000/svg" xmlns:xlink="http://www.w3.org/1999/xlink">
<path d="M10.63,2.979C13.924,2.979 17.091,4.219 19.478,6.442C19.657,6.614 19.945,6.612 20.122,6.438L21.84,4.738C21.929,4.65 21.979,4.53 21.979,4.406C21.978,4.281 21.927,4.162 21.836,4.074C15.571,-1.809 5.688,-1.809 -0.576,4.074C-0.667,4.162 -0.718,4.281 -0.719,4.405C-0.72,4.53 -0.67,4.65 -0.581,4.738L1.138,6.438C1.315,6.612 1.602,6.614 1.782,6.442C4.169,4.219 7.337,2.979 10.63,2.979ZM10.627,8.492C12.439,8.492 14.186,9.168 15.529,10.388C15.71,10.561 15.996,10.558 16.173,10.38L17.891,8.637C17.982,8.546 18.032,8.422 18.031,8.293C18.029,8.164 17.977,8.041 17.884,7.952C13.795,4.133 7.463,4.133 3.374,7.952C3.282,8.041 3.229,8.164 3.228,8.293C3.227,8.422 3.277,8.546 3.368,8.637L5.085,10.38C5.262,10.558 5.548,10.561 5.73,10.388C7.072,9.168 8.817,8.493 10.627,8.492ZM14.082,12.524C14.085,12.65 14.034,12.772 13.942,12.861L10.959,15.808C10.872,15.895 10.753,15.943 10.628,15.943C10.504,15.943 10.385,15.895 10.297,15.808L7.314,12.861C7.222,12.772 7.172,12.65 7.174,12.523C7.177,12.397 7.233,12.277 7.329,12.192C9.234,10.615 12.023,10.615 13.928,12.192C14.024,12.277 14.08,12.397 14.082,12.524Z" clip-rule="evenodd" fill-rule="evenodd" fill="#FFFFFF"/>
</svg>
