<svg width="22" height="16" viewBox="0 0 22 16" fill="none" xmlns="http://www.w3.org/2000/svg" xmlns:xlink="http://www.w3.org/1999/xlink">
<path d="M10.63,2.978C13.924,2.978 17.091,4.218 19.478,6.442C19.657,6.613 19.945,6.611 20.122,6.437L21.84,4.738C21.929,4.649 21.979,4.529 21.979,4.405C21.978,4.28 21.927,4.161 21.836,4.074C15.571,-1.81 5.688,-1.81 -0.576,4.074C-0.667,4.161 -0.718,4.28 -0.719,4.405C-0.72,4.529 -0.67,4.649 -0.581,4.738L1.138,6.437C1.315,6.611 1.602,6.614 1.782,6.442C4.169,4.218 7.337,2.978 10.63,2.978ZM10.627,8.491C12.439,8.491 14.186,9.167 15.529,10.387C15.71,10.561 15.996,10.557 16.173,10.379L17.891,8.636C17.982,8.545 18.032,8.421 18.031,8.292C18.029,8.163 17.977,8.04 17.884,7.951C13.795,4.133 7.463,4.133 3.374,7.951C3.282,8.04 3.229,8.163 3.228,8.292C3.227,8.421 3.277,8.545 3.368,8.636L5.085,10.379C5.262,10.557 5.548,10.561 5.73,10.387C7.072,9.168 8.817,8.492 10.627,8.491ZM14.082,12.523C14.085,12.649 14.034,12.771 13.942,12.86L10.959,15.807C10.872,15.894 10.753,15.943 10.628,15.943C10.504,15.943 10.385,15.894 10.297,15.807L7.314,12.86C7.222,12.771 7.172,12.649 7.174,12.523C7.177,12.396 7.233,12.276 7.329,12.192C9.234,10.614 12.023,10.614 13.928,12.192C14.024,12.276 14.08,12.396 14.082,12.523Z" clip-rule="evenodd" fill-rule="evenodd" fill="#FFFFFF"/>
</svg>
